G75*
%MOIN*%
%OFA0B0*%
%FSLAX25Y25*%
%IPPOS*%
%LPD*%
%AMOC8*
5,1,8,0,0,1.08239X$1,22.5*
%
%ADD10C,0.07400*%
%ADD11R,0.07400X0.07400*%
%ADD12C,0.01480*%
%ADD13C,0.01969*%
%ADD14C,0.03100*%
%ADD15C,0.00600*%
%ADD16C,0.01800*%
D10*
X0162062Y0257962D03*
X0162062Y0267962D03*
X0168985Y0297037D03*
X0173212Y0306100D03*
X0177438Y0315163D03*
X0192647Y0311336D03*
X0188421Y0302273D03*
X0193386Y0336827D03*
X0202046Y0341827D03*
X0210707Y0346827D03*
X0219367Y0351827D03*
X0228027Y0356827D03*
X0236687Y0361827D03*
X0257244Y0363230D03*
X0267244Y0363230D03*
X0363589Y0267280D03*
X0363589Y0257280D03*
X0326587Y0183498D03*
X0317524Y0179272D03*
X0308461Y0175046D03*
X0299397Y0170819D03*
X0290334Y0166593D03*
X0281271Y0162367D03*
X0267375Y0160737D03*
X0257375Y0160737D03*
D11*
G36*
X0342709Y0196670D02*
X0338464Y0190609D01*
X0332403Y0194854D01*
X0336648Y0200915D01*
X0342709Y0196670D01*
G37*
D12*
X0345254Y0204935D02*
X0345994Y0205675D01*
X0346419Y0203261D01*
X0345013Y0201252D01*
X0342599Y0200827D01*
X0340590Y0202233D01*
X0340165Y0204647D01*
X0341571Y0206656D01*
X0343985Y0207081D01*
X0345994Y0205675D01*
X0344980Y0205030D01*
X0345246Y0203521D01*
X0344368Y0202266D01*
X0342859Y0202000D01*
X0341604Y0202878D01*
X0341338Y0204387D01*
X0342216Y0205642D01*
X0343725Y0205908D01*
X0344980Y0205030D01*
X0343967Y0204384D01*
X0344073Y0203781D01*
X0343722Y0203279D01*
X0343119Y0203173D01*
X0342617Y0203524D01*
X0342511Y0204127D01*
X0342862Y0204629D01*
X0343465Y0204735D01*
X0343967Y0204384D01*
X0350990Y0213126D02*
X0351730Y0213866D01*
X0352155Y0211452D01*
X0350749Y0209443D01*
X0348335Y0209018D01*
X0346326Y0210424D01*
X0345901Y0212838D01*
X0347307Y0214847D01*
X0349721Y0215272D01*
X0351730Y0213866D01*
X0350716Y0213221D01*
X0350982Y0211712D01*
X0350104Y0210457D01*
X0348595Y0210191D01*
X0347340Y0211069D01*
X0347074Y0212578D01*
X0347952Y0213833D01*
X0349461Y0214099D01*
X0350716Y0213221D01*
X0349703Y0212575D01*
X0349809Y0211972D01*
X0349458Y0211470D01*
X0348855Y0211364D01*
X0348353Y0211715D01*
X0348247Y0212318D01*
X0348598Y0212820D01*
X0349201Y0212926D01*
X0349703Y0212575D01*
X0342798Y0218862D02*
X0343538Y0219602D01*
X0343963Y0217188D01*
X0342557Y0215179D01*
X0340143Y0214754D01*
X0338134Y0216160D01*
X0337709Y0218574D01*
X0339115Y0220583D01*
X0341529Y0221008D01*
X0343538Y0219602D01*
X0342524Y0218957D01*
X0342790Y0217448D01*
X0341912Y0216193D01*
X0340403Y0215927D01*
X0339148Y0216805D01*
X0338882Y0218314D01*
X0339760Y0219569D01*
X0341269Y0219835D01*
X0342524Y0218957D01*
X0341511Y0218311D01*
X0341617Y0217708D01*
X0341266Y0217206D01*
X0340663Y0217100D01*
X0340161Y0217451D01*
X0340055Y0218054D01*
X0340406Y0218556D01*
X0341009Y0218662D01*
X0341511Y0218311D01*
X0337062Y0210671D02*
X0337802Y0211411D01*
X0338227Y0208997D01*
X0336821Y0206988D01*
X0334407Y0206563D01*
X0332398Y0207969D01*
X0331973Y0210383D01*
X0333379Y0212392D01*
X0335793Y0212817D01*
X0337802Y0211411D01*
X0336788Y0210766D01*
X0337054Y0209257D01*
X0336176Y0208002D01*
X0334667Y0207736D01*
X0333412Y0208614D01*
X0333146Y0210123D01*
X0334024Y0211378D01*
X0335533Y0211644D01*
X0336788Y0210766D01*
X0335775Y0210120D01*
X0335881Y0209517D01*
X0335530Y0209015D01*
X0334927Y0208909D01*
X0334425Y0209260D01*
X0334319Y0209863D01*
X0334670Y0210365D01*
X0335273Y0210471D01*
X0335775Y0210120D01*
X0331326Y0202479D02*
X0332066Y0203219D01*
X0332491Y0200805D01*
X0331085Y0198796D01*
X0328671Y0198371D01*
X0326662Y0199777D01*
X0326237Y0202191D01*
X0327643Y0204200D01*
X0330057Y0204625D01*
X0332066Y0203219D01*
X0331052Y0202574D01*
X0331318Y0201065D01*
X0330440Y0199810D01*
X0328931Y0199544D01*
X0327676Y0200422D01*
X0327410Y0201931D01*
X0328288Y0203186D01*
X0329797Y0203452D01*
X0331052Y0202574D01*
X0330039Y0201928D01*
X0330145Y0201325D01*
X0329794Y0200823D01*
X0329191Y0200717D01*
X0328689Y0201068D01*
X0328583Y0201671D01*
X0328934Y0202173D01*
X0329537Y0202279D01*
X0330039Y0201928D01*
D13*
X0206936Y0203484D02*
X0200600Y0213175D01*
X0200591Y0213418D01*
X0200209Y0213773D01*
X0199924Y0214209D01*
X0199686Y0214259D01*
X0172528Y0239504D01*
X0172500Y0239652D01*
X0172000Y0239995D01*
X0171555Y0240408D01*
X0171405Y0240403D01*
X0158166Y0249482D01*
X0154599Y0252335D01*
X0154559Y0252856D01*
X0154559Y0253284D01*
X0154535Y0253342D01*
X0154532Y0253406D01*
X0154340Y0253814D01*
X0154167Y0254230D01*
X0154122Y0254275D01*
X0154095Y0254332D01*
X0153762Y0254636D01*
X0153443Y0254954D01*
X0153384Y0254979D01*
X0153337Y0255021D01*
X0152913Y0255174D01*
X0152496Y0255346D01*
X0152433Y0255346D01*
X0152378Y0255366D01*
X0152378Y0264661D01*
X0152596Y0269923D01*
X0152913Y0270054D01*
X0153337Y0270207D01*
X0153384Y0270250D01*
X0153443Y0270274D01*
X0153762Y0270593D01*
X0154095Y0270896D01*
X0154122Y0270953D01*
X0154167Y0270998D01*
X0154340Y0271415D01*
X0154532Y0271823D01*
X0154535Y0271886D01*
X0154559Y0271945D01*
X0154559Y0272373D01*
X0154999Y0278160D01*
X0156873Y0289689D01*
X0160040Y0300932D01*
X0164461Y0311744D01*
X0170077Y0321985D01*
X0176818Y0331525D01*
X0184595Y0340239D01*
X0193310Y0348017D01*
X0202849Y0354757D01*
X0213091Y0360374D01*
X0223902Y0364794D01*
X0235145Y0367962D01*
X0246675Y0369835D01*
X0252462Y0370276D01*
X0252890Y0370276D01*
X0252949Y0370300D01*
X0253012Y0370303D01*
X0253420Y0370495D01*
X0253836Y0370668D01*
X0253881Y0370712D01*
X0253939Y0370739D01*
X0254242Y0371073D01*
X0254561Y0371392D01*
X0254585Y0371450D01*
X0254628Y0371497D01*
X0254780Y0371922D01*
X0254953Y0372338D01*
X0254953Y0372402D01*
X0254974Y0372461D01*
X0254953Y0372912D01*
X0254953Y0373147D01*
X0261118Y0373402D01*
X0261827Y0373402D01*
X0269488Y0373085D01*
X0269488Y0372912D01*
X0269467Y0372461D01*
X0269488Y0372402D01*
X0269488Y0372338D01*
X0269661Y0371922D01*
X0269813Y0371497D01*
X0269856Y0371450D01*
X0269880Y0371392D01*
X0270199Y0371073D01*
X0270502Y0370739D01*
X0270560Y0370712D01*
X0270604Y0370668D01*
X0271021Y0370495D01*
X0271429Y0370303D01*
X0271492Y0370300D01*
X0271551Y0370276D01*
X0271979Y0370276D01*
X0277766Y0369835D01*
X0289296Y0367962D01*
X0300538Y0364794D01*
X0311350Y0360374D01*
X0321592Y0354757D01*
X0331131Y0348017D01*
X0339846Y0340239D01*
X0347623Y0331525D01*
X0354364Y0321985D01*
X0359980Y0311744D01*
X0364401Y0300932D01*
X0367568Y0289689D01*
X0369441Y0278160D01*
X0369885Y0272334D01*
X0369909Y0271823D01*
X0370346Y0270896D01*
X0371104Y0270207D01*
X0372068Y0269860D01*
X0372163Y0269865D01*
X0372457Y0262772D01*
X0372457Y0262614D01*
X0366134Y0262614D01*
X0366582Y0262800D02*
X0368069Y0264286D01*
X0368873Y0266228D01*
X0368873Y0268331D01*
X0368069Y0270273D01*
X0366582Y0271759D01*
X0364640Y0272564D01*
X0362538Y0272564D01*
X0360595Y0271759D01*
X0359109Y0270273D01*
X0358305Y0268331D01*
X0358305Y0266228D01*
X0359109Y0264286D01*
X0360595Y0262800D01*
X0361851Y0262280D01*
X0360595Y0261759D01*
X0359109Y0260273D01*
X0358305Y0258331D01*
X0358305Y0256228D01*
X0359109Y0254286D01*
X0360595Y0252800D01*
X0362538Y0251995D01*
X0364640Y0251995D01*
X0366582Y0252800D01*
X0368069Y0254286D01*
X0368873Y0256228D01*
X0368873Y0258331D01*
X0368069Y0260273D01*
X0366582Y0261759D01*
X0365326Y0262280D01*
X0366582Y0262800D01*
X0368191Y0264581D02*
X0372382Y0264581D01*
X0372457Y0262614D02*
X0372157Y0255364D01*
X0372068Y0255368D01*
X0371104Y0255021D01*
X0370346Y0254332D01*
X0369909Y0253406D01*
X0369885Y0252894D01*
X0369441Y0247068D01*
X0367568Y0235539D01*
X0364401Y0224296D01*
X0359980Y0213484D01*
X0354364Y0203243D01*
X0347623Y0193703D01*
X0339846Y0184989D01*
X0331131Y0177211D01*
X0321592Y0170471D01*
X0311350Y0164854D01*
X0300538Y0160434D01*
X0289296Y0157267D01*
X0277766Y0155393D01*
X0271941Y0154950D01*
X0271429Y0154925D01*
X0270502Y0154489D01*
X0269830Y0153749D01*
X0263323Y0153480D01*
X0260843Y0153480D01*
X0260449Y0153874D01*
X0254498Y0153874D01*
X0253939Y0154489D01*
X0253012Y0154925D01*
X0252500Y0154950D01*
X0252354Y0154961D01*
X0206936Y0203484D01*
X0206858Y0203604D02*
X0240536Y0203604D01*
X0240536Y0205571D02*
X0205572Y0205571D01*
X0204286Y0207538D02*
X0240536Y0207538D01*
X0240536Y0209505D02*
X0203000Y0209505D01*
X0201713Y0211472D02*
X0240536Y0211472D01*
X0240536Y0213439D02*
X0200568Y0213439D01*
X0198452Y0215406D02*
X0240177Y0215406D01*
X0240363Y0214957D02*
X0240536Y0214784D01*
X0240536Y0177220D01*
X0240914Y0176307D01*
X0241613Y0175608D01*
X0253193Y0164028D01*
X0252896Y0163731D01*
X0252091Y0161788D01*
X0252091Y0159686D01*
X0252896Y0157744D01*
X0254382Y0156258D01*
X0256324Y0155453D01*
X0258426Y0155453D01*
X0260369Y0156258D01*
X0261855Y0157744D01*
X0262375Y0159000D01*
X0262896Y0157744D01*
X0264382Y0156258D01*
X0266324Y0155453D01*
X0268426Y0155453D01*
X0270369Y0156258D01*
X0271855Y0157744D01*
X0272660Y0159686D01*
X0272660Y0161788D01*
X0271855Y0163731D01*
X0271553Y0164033D01*
X0283227Y0175707D01*
X0283605Y0176620D01*
X0283605Y0237285D01*
X0291633Y0245313D01*
X0291663Y0245239D01*
X0292545Y0244357D01*
X0293697Y0243880D01*
X0294790Y0243880D01*
X0306236Y0232434D01*
X0306236Y0228562D01*
X0305463Y0227790D01*
X0305156Y0227048D01*
X0304197Y0227048D01*
X0303045Y0226571D01*
X0302163Y0225690D01*
X0301686Y0224538D01*
X0301686Y0223291D01*
X0302163Y0222139D01*
X0302936Y0221366D01*
X0302936Y0221062D01*
X0302163Y0220290D01*
X0301686Y0219138D01*
X0301686Y0217891D01*
X0302163Y0216739D01*
X0303045Y0215857D01*
X0304197Y0215380D01*
X0305444Y0215380D01*
X0306596Y0215857D01*
X0307478Y0216739D01*
X0307955Y0217891D01*
X0307955Y0219138D01*
X0307478Y0220290D01*
X0306705Y0221062D01*
X0306705Y0221366D01*
X0307478Y0222139D01*
X0307785Y0222880D01*
X0308586Y0222880D01*
X0308586Y0221791D01*
X0309063Y0220639D01*
X0309536Y0220166D01*
X0309536Y0218695D01*
X0298940Y0208098D01*
X0298905Y0208063D01*
X0298905Y0210866D01*
X0299678Y0211639D01*
X0300155Y0212791D01*
X0300155Y0214038D01*
X0299678Y0215190D01*
X0298796Y0216071D01*
X0297644Y0216548D01*
X0296397Y0216548D01*
X0295245Y0216071D01*
X0294903Y0215729D01*
X0294878Y0215790D01*
X0293996Y0216671D01*
X0293505Y0216875D01*
X0293505Y0217434D01*
X0296851Y0220780D01*
X0297944Y0220780D01*
X0299096Y0221257D01*
X0299978Y0222139D01*
X0300455Y0223291D01*
X0300455Y0224538D01*
X0299978Y0225690D01*
X0299096Y0226571D01*
X0297944Y0227048D01*
X0296697Y0227048D01*
X0295545Y0226571D01*
X0294663Y0225690D01*
X0294186Y0224538D01*
X0294186Y0223445D01*
X0290840Y0220098D01*
X0289736Y0218995D01*
X0289736Y0215962D01*
X0289563Y0215790D01*
X0289086Y0214638D01*
X0289086Y0213391D01*
X0289563Y0212239D01*
X0290445Y0211357D01*
X0291597Y0210880D01*
X0292844Y0210880D01*
X0293996Y0211357D01*
X0294338Y0211699D01*
X0294363Y0211639D01*
X0295136Y0210866D01*
X0295136Y0176634D01*
X0296451Y0175319D01*
X0296404Y0175299D01*
X0294918Y0173813D01*
X0294113Y0171871D01*
X0294113Y0170287D01*
X0293328Y0171073D01*
X0291385Y0171877D01*
X0289283Y0171877D01*
X0287341Y0171073D01*
X0285855Y0169587D01*
X0285050Y0167644D01*
X0285050Y0166061D01*
X0284265Y0166847D01*
X0282322Y0167651D01*
X0280220Y0167651D01*
X0278278Y0166847D01*
X0276792Y0165360D01*
X0275987Y0163418D01*
X0275987Y0161316D01*
X0276792Y0159374D01*
X0278278Y0157887D01*
X0280220Y0157083D01*
X0282322Y0157083D01*
X0284265Y0157887D01*
X0285751Y0159374D01*
X0286556Y0161316D01*
X0286556Y0162899D01*
X0287341Y0162113D01*
X0289283Y0161309D01*
X0291385Y0161309D01*
X0293328Y0162113D01*
X0294814Y0163600D01*
X0295619Y0165542D01*
X0295619Y0167125D01*
X0296404Y0166340D01*
X0298346Y0165535D01*
X0300449Y0165535D01*
X0302391Y0166340D01*
X0303877Y0167826D01*
X0304682Y0169768D01*
X0304682Y0171351D01*
X0305467Y0170566D01*
X0307409Y0169761D01*
X0309512Y0169761D01*
X0311454Y0170566D01*
X0312940Y0172052D01*
X0313745Y0173994D01*
X0313745Y0175578D01*
X0314530Y0174792D01*
X0316472Y0173988D01*
X0318575Y0173988D01*
X0320517Y0174792D01*
X0322003Y0176278D01*
X0322808Y0178221D01*
X0322808Y0179238D01*
X0322884Y0179162D01*
X0323607Y0178636D01*
X0324405Y0178230D01*
X0325256Y0177954D01*
X0326139Y0177814D01*
X0327034Y0177814D01*
X0327918Y0177954D01*
X0328769Y0178230D01*
X0328976Y0178336D01*
X0326579Y0183477D01*
X0326608Y0183490D01*
X0329004Y0178350D01*
X0329566Y0178636D01*
X0330290Y0179162D01*
X0330922Y0179795D01*
X0331448Y0180519D01*
X0331854Y0181316D01*
X0332131Y0182167D01*
X0332271Y0183051D01*
X0332271Y0183945D01*
X0332131Y0184829D01*
X0331854Y0185680D01*
X0331749Y0185888D01*
X0326608Y0183490D01*
X0326594Y0183519D01*
X0326566Y0183506D01*
X0324169Y0188646D01*
X0323607Y0188360D01*
X0322884Y0187834D01*
X0322251Y0187201D01*
X0321725Y0186477D01*
X0321319Y0185680D01*
X0321042Y0184829D01*
X0320902Y0183945D01*
X0320902Y0183366D01*
X0320517Y0183752D01*
X0318575Y0184556D01*
X0316472Y0184556D01*
X0314530Y0183752D01*
X0313044Y0182265D01*
X0312239Y0180323D01*
X0312239Y0178740D01*
X0311454Y0179525D01*
X0309512Y0180330D01*
X0307409Y0180330D01*
X0305467Y0179525D01*
X0303981Y0178039D01*
X0303176Y0176097D01*
X0303176Y0174514D01*
X0302391Y0175299D01*
X0300449Y0176104D01*
X0300405Y0176104D01*
X0300405Y0176695D01*
X0299301Y0177798D01*
X0298905Y0178195D01*
X0298905Y0195960D01*
X0299097Y0195880D01*
X0300344Y0195880D01*
X0301496Y0196357D01*
X0302378Y0197239D01*
X0302855Y0198391D01*
X0302855Y0199638D01*
X0302378Y0200790D01*
X0301605Y0201562D01*
X0301605Y0205434D01*
X0306348Y0210177D01*
X0306363Y0210139D01*
X0307245Y0209257D01*
X0308397Y0208780D01*
X0309644Y0208780D01*
X0310796Y0209257D01*
X0311678Y0210139D01*
X0312155Y0211291D01*
X0312155Y0212538D01*
X0311678Y0213690D01*
X0311669Y0213698D01*
X0315201Y0217230D01*
X0316305Y0218334D01*
X0316305Y0275695D01*
X0291155Y0300845D01*
X0291155Y0301938D01*
X0290678Y0303090D01*
X0289796Y0303971D01*
X0288644Y0304448D01*
X0287397Y0304448D01*
X0286245Y0303971D01*
X0285363Y0303090D01*
X0284886Y0301938D01*
X0284886Y0300691D01*
X0285363Y0299539D01*
X0286245Y0298657D01*
X0287397Y0298180D01*
X0288490Y0298180D01*
X0291683Y0294987D01*
X0291645Y0294971D01*
X0290763Y0294090D01*
X0290286Y0292938D01*
X0290286Y0291691D01*
X0290763Y0290539D01*
X0290936Y0290366D01*
X0290936Y0251643D01*
X0279713Y0240420D01*
X0279705Y0240412D01*
X0279705Y0265495D01*
X0278601Y0266598D01*
X0206446Y0338754D01*
X0206526Y0338834D01*
X0207331Y0340776D01*
X0207331Y0342730D01*
X0207713Y0342347D01*
X0209655Y0341543D01*
X0211758Y0341543D01*
X0213700Y0342347D01*
X0215186Y0343834D01*
X0215991Y0345776D01*
X0215991Y0347730D01*
X0216374Y0347347D01*
X0218316Y0346543D01*
X0220418Y0346543D01*
X0222360Y0347347D01*
X0223847Y0348834D01*
X0224651Y0350776D01*
X0224651Y0352730D01*
X0225034Y0352347D01*
X0226976Y0351543D01*
X0229078Y0351543D01*
X0231020Y0352347D01*
X0232507Y0353834D01*
X0233311Y0355776D01*
X0233311Y0357254D01*
X0233708Y0356965D01*
X0234505Y0356559D01*
X0235356Y0356283D01*
X0236240Y0356143D01*
X0237135Y0356143D01*
X0238018Y0356283D01*
X0238869Y0356559D01*
X0239519Y0356890D01*
X0236682Y0361805D01*
X0236709Y0361821D01*
X0239547Y0356905D01*
X0239667Y0356965D01*
X0240390Y0357491D01*
X0241023Y0358124D01*
X0241549Y0358848D01*
X0241955Y0359645D01*
X0242232Y0360496D01*
X0242372Y0361380D01*
X0242372Y0362274D01*
X0242232Y0363158D01*
X0241955Y0364009D01*
X0241624Y0364659D01*
X0236709Y0361821D01*
X0236693Y0361849D01*
X0236666Y0361833D01*
X0233827Y0366749D01*
X0233708Y0366689D01*
X0232984Y0366163D01*
X0232352Y0365530D01*
X0231826Y0364806D01*
X0231420Y0364009D01*
X0231143Y0363158D01*
X0231003Y0362274D01*
X0231003Y0361380D01*
X0231014Y0361309D01*
X0229078Y0362111D01*
X0226976Y0362111D01*
X0225034Y0361307D01*
X0223547Y0359820D01*
X0222743Y0357878D01*
X0222743Y0355924D01*
X0222360Y0356307D01*
X0220418Y0357111D01*
X0218316Y0357111D01*
X0216374Y0356307D01*
X0214887Y0354820D01*
X0214083Y0352878D01*
X0214083Y0350924D01*
X0213700Y0351307D01*
X0211758Y0352111D01*
X0209655Y0352111D01*
X0207713Y0351307D01*
X0206227Y0349820D01*
X0205422Y0347878D01*
X0205422Y0345924D01*
X0205040Y0346307D01*
X0203097Y0347111D01*
X0200995Y0347111D01*
X0199053Y0346307D01*
X0197567Y0344820D01*
X0196762Y0342878D01*
X0196762Y0340924D01*
X0196379Y0341307D01*
X0194437Y0342111D01*
X0192335Y0342111D01*
X0190393Y0341307D01*
X0188906Y0339820D01*
X0188102Y0337878D01*
X0188102Y0335776D01*
X0188906Y0333834D01*
X0190393Y0332347D01*
X0192335Y0331543D01*
X0194437Y0331543D01*
X0196379Y0332347D01*
X0197866Y0333834D01*
X0198670Y0335776D01*
X0198670Y0337730D01*
X0199053Y0337347D01*
X0200995Y0336543D01*
X0203097Y0336543D01*
X0203260Y0336610D01*
X0275936Y0263934D01*
X0275936Y0186562D01*
X0275805Y0186431D01*
X0275805Y0235612D01*
X0275807Y0236389D01*
X0275805Y0236391D01*
X0275805Y0236395D01*
X0275255Y0236945D01*
X0212886Y0299704D01*
X0212545Y0321006D01*
X0213278Y0321739D01*
X0213755Y0322891D01*
X0213755Y0324138D01*
X0213278Y0325290D01*
X0212396Y0326171D01*
X0211244Y0326648D01*
X0209997Y0326648D01*
X0208845Y0326171D01*
X0207963Y0325290D01*
X0207486Y0324138D01*
X0207486Y0322891D01*
X0207963Y0321739D01*
X0208777Y0320925D01*
X0209130Y0298902D01*
X0209127Y0298140D01*
X0209142Y0298125D01*
X0209143Y0298104D01*
X0209690Y0297573D01*
X0272036Y0234837D01*
X0272036Y0186431D01*
X0271796Y0186671D01*
X0270644Y0187148D01*
X0269551Y0187148D01*
X0269505Y0187195D01*
X0269505Y0230966D01*
X0270278Y0231739D01*
X0270755Y0232891D01*
X0270755Y0234138D01*
X0270278Y0235290D01*
X0269396Y0236171D01*
X0268244Y0236648D01*
X0266997Y0236648D01*
X0265845Y0236171D01*
X0264963Y0235290D01*
X0264486Y0234138D01*
X0264486Y0232891D01*
X0264963Y0231739D01*
X0265736Y0230966D01*
X0265736Y0187148D01*
X0265651Y0187148D01*
X0247961Y0204838D01*
X0247961Y0246453D01*
X0248734Y0247225D01*
X0249211Y0248377D01*
X0249211Y0249624D01*
X0248734Y0250776D01*
X0247853Y0251658D01*
X0246701Y0252135D01*
X0245454Y0252135D01*
X0244302Y0251658D01*
X0243420Y0250776D01*
X0242943Y0249624D01*
X0242943Y0248377D01*
X0243420Y0247225D01*
X0244193Y0246453D01*
X0244193Y0219639D01*
X0243644Y0219867D01*
X0242397Y0219867D01*
X0241245Y0219389D01*
X0240363Y0218508D01*
X0239886Y0217356D01*
X0239886Y0216109D01*
X0240363Y0214957D01*
X0239893Y0217373D02*
X0196336Y0217373D01*
X0194220Y0219340D02*
X0241196Y0219340D01*
X0244193Y0221307D02*
X0192104Y0221307D01*
X0189988Y0223274D02*
X0244193Y0223274D01*
X0244193Y0225241D02*
X0187872Y0225241D01*
X0185756Y0227208D02*
X0244193Y0227208D01*
X0244193Y0229175D02*
X0183640Y0229175D01*
X0181524Y0231142D02*
X0244193Y0231142D01*
X0244193Y0233109D02*
X0179408Y0233109D01*
X0177292Y0235076D02*
X0244193Y0235076D01*
X0244193Y0237043D02*
X0175176Y0237043D01*
X0173060Y0239010D02*
X0244193Y0239010D01*
X0244193Y0240977D02*
X0170568Y0240977D01*
X0167700Y0242944D02*
X0244193Y0242944D01*
X0244193Y0244911D02*
X0164831Y0244911D01*
X0161962Y0246878D02*
X0243767Y0246878D01*
X0242943Y0248845D02*
X0159094Y0248845D01*
X0156502Y0250812D02*
X0243456Y0250812D01*
X0248698Y0250812D02*
X0256161Y0250812D01*
X0258115Y0248845D02*
X0249211Y0248845D01*
X0248387Y0246878D02*
X0260070Y0246878D01*
X0262025Y0244911D02*
X0247961Y0244911D01*
X0247961Y0242944D02*
X0263980Y0242944D01*
X0265935Y0240977D02*
X0247961Y0240977D01*
X0247961Y0239010D02*
X0267889Y0239010D01*
X0269844Y0237043D02*
X0247961Y0237043D01*
X0247961Y0235076D02*
X0264875Y0235076D01*
X0264486Y0233109D02*
X0247961Y0233109D01*
X0247961Y0231142D02*
X0265560Y0231142D01*
X0265736Y0229175D02*
X0247961Y0229175D01*
X0247961Y0227208D02*
X0265736Y0227208D01*
X0265736Y0225241D02*
X0247961Y0225241D01*
X0247961Y0223274D02*
X0265736Y0223274D01*
X0265736Y0221307D02*
X0247961Y0221307D01*
X0247961Y0219340D02*
X0265736Y0219340D01*
X0265736Y0217373D02*
X0247961Y0217373D01*
X0247961Y0215406D02*
X0265736Y0215406D01*
X0265736Y0213439D02*
X0247961Y0213439D01*
X0247961Y0211472D02*
X0265736Y0211472D01*
X0265736Y0209505D02*
X0247961Y0209505D01*
X0247961Y0207538D02*
X0265736Y0207538D01*
X0265736Y0205571D02*
X0247961Y0205571D01*
X0249196Y0203604D02*
X0265736Y0203604D01*
X0265736Y0201637D02*
X0251163Y0201637D01*
X0253130Y0199670D02*
X0265736Y0199670D01*
X0265736Y0197703D02*
X0255097Y0197703D01*
X0257064Y0195736D02*
X0265736Y0195736D01*
X0265736Y0193769D02*
X0259031Y0193769D01*
X0260998Y0191802D02*
X0265736Y0191802D01*
X0265736Y0189835D02*
X0262965Y0189835D01*
X0264932Y0187868D02*
X0265736Y0187868D01*
X0269505Y0187868D02*
X0272036Y0187868D01*
X0272036Y0189835D02*
X0269505Y0189835D01*
X0269505Y0191802D02*
X0272036Y0191802D01*
X0272036Y0193769D02*
X0269505Y0193769D01*
X0269505Y0195736D02*
X0272036Y0195736D01*
X0272036Y0197703D02*
X0269505Y0197703D01*
X0269505Y0199670D02*
X0272036Y0199670D01*
X0272036Y0201637D02*
X0269505Y0201637D01*
X0269505Y0203604D02*
X0272036Y0203604D01*
X0272036Y0205571D02*
X0269505Y0205571D01*
X0269505Y0207538D02*
X0272036Y0207538D01*
X0272036Y0209505D02*
X0269505Y0209505D01*
X0269505Y0211472D02*
X0272036Y0211472D01*
X0272036Y0213439D02*
X0269505Y0213439D01*
X0269505Y0215406D02*
X0272036Y0215406D01*
X0272036Y0217373D02*
X0269505Y0217373D01*
X0269505Y0219340D02*
X0272036Y0219340D01*
X0272036Y0221307D02*
X0269505Y0221307D01*
X0269505Y0223274D02*
X0272036Y0223274D01*
X0272036Y0225241D02*
X0269505Y0225241D01*
X0269505Y0227208D02*
X0272036Y0227208D01*
X0272036Y0229175D02*
X0269505Y0229175D01*
X0269681Y0231142D02*
X0272036Y0231142D01*
X0272036Y0233109D02*
X0270755Y0233109D01*
X0270366Y0235076D02*
X0271799Y0235076D01*
X0275157Y0237043D02*
X0275936Y0237043D01*
X0275936Y0239010D02*
X0273202Y0239010D01*
X0271247Y0240977D02*
X0275936Y0240977D01*
X0275936Y0242944D02*
X0269293Y0242944D01*
X0267338Y0244911D02*
X0275936Y0244911D01*
X0275936Y0246878D02*
X0265383Y0246878D01*
X0263428Y0248845D02*
X0275936Y0248845D01*
X0275936Y0250812D02*
X0261474Y0250812D01*
X0259519Y0252779D02*
X0275936Y0252779D01*
X0275936Y0254746D02*
X0257564Y0254746D01*
X0256458Y0255961D02*
X0267431Y0255961D01*
X0268008Y0256537D01*
X0268008Y0268455D01*
X0267431Y0269031D01*
X0256458Y0269031D01*
X0255882Y0268455D01*
X0255882Y0256537D01*
X0256458Y0255961D01*
X0255882Y0256713D02*
X0255609Y0256713D01*
X0255882Y0258680D02*
X0253654Y0258680D01*
X0251700Y0260647D02*
X0255882Y0260647D01*
X0255882Y0262614D02*
X0249745Y0262614D01*
X0247790Y0264581D02*
X0255882Y0264581D01*
X0255882Y0266548D02*
X0245835Y0266548D01*
X0243880Y0268515D02*
X0255942Y0268515D01*
X0263487Y0276383D02*
X0236061Y0276383D01*
X0234107Y0278350D02*
X0261520Y0278350D01*
X0259553Y0280317D02*
X0232152Y0280317D01*
X0230197Y0282284D02*
X0257586Y0282284D01*
X0255619Y0284251D02*
X0228242Y0284251D01*
X0226287Y0286218D02*
X0253652Y0286218D01*
X0251685Y0288185D02*
X0224333Y0288185D01*
X0222378Y0290152D02*
X0249718Y0290152D01*
X0247751Y0292119D02*
X0220423Y0292119D01*
X0218468Y0294086D02*
X0245784Y0294086D01*
X0243816Y0296053D02*
X0216514Y0296053D01*
X0214559Y0298020D02*
X0241849Y0298020D01*
X0239882Y0299987D02*
X0212881Y0299987D01*
X0212850Y0301954D02*
X0237915Y0301954D01*
X0235948Y0303921D02*
X0212819Y0303921D01*
X0212787Y0305889D02*
X0233981Y0305889D01*
X0232014Y0307856D02*
X0212756Y0307856D01*
X0212724Y0309823D02*
X0230047Y0309823D01*
X0228080Y0311790D02*
X0212693Y0311790D01*
X0212661Y0313757D02*
X0226113Y0313757D01*
X0224146Y0315724D02*
X0212630Y0315724D01*
X0212598Y0317691D02*
X0222179Y0317691D01*
X0220212Y0319658D02*
X0212567Y0319658D01*
X0213163Y0321625D02*
X0218245Y0321625D01*
X0216278Y0323592D02*
X0213755Y0323592D01*
X0214311Y0325559D02*
X0213008Y0325559D01*
X0212344Y0327526D02*
X0173992Y0327526D01*
X0175382Y0329493D02*
X0210377Y0329493D01*
X0208410Y0331460D02*
X0176772Y0331460D01*
X0178515Y0333427D02*
X0189313Y0333427D01*
X0188260Y0335394D02*
X0180271Y0335394D01*
X0182026Y0337361D02*
X0188102Y0337361D01*
X0188702Y0339328D02*
X0183782Y0339328D01*
X0185778Y0341295D02*
X0190381Y0341295D01*
X0187982Y0343262D02*
X0196921Y0343262D01*
X0196762Y0341295D02*
X0196391Y0341295D01*
X0197975Y0345229D02*
X0190186Y0345229D01*
X0192390Y0347196D02*
X0205422Y0347196D01*
X0205954Y0349163D02*
X0194931Y0349163D01*
X0197715Y0351130D02*
X0207536Y0351130D01*
X0203408Y0355064D02*
X0215131Y0355064D01*
X0214173Y0353097D02*
X0200499Y0353097D01*
X0206995Y0357031D02*
X0218122Y0357031D01*
X0220612Y0357031D02*
X0222743Y0357031D01*
X0223207Y0358998D02*
X0210582Y0358998D01*
X0214536Y0360965D02*
X0224692Y0360965D01*
X0224274Y0364899D02*
X0231893Y0364899D01*
X0231256Y0366866D02*
X0234056Y0366866D01*
X0233855Y0366764D02*
X0236693Y0361849D01*
X0241610Y0364687D01*
X0241549Y0364806D01*
X0241023Y0365530D01*
X0240390Y0366163D01*
X0239667Y0366689D01*
X0238869Y0367095D01*
X0238018Y0367371D01*
X0237135Y0367511D01*
X0236240Y0367511D01*
X0235356Y0367371D01*
X0234505Y0367095D01*
X0233855Y0366764D01*
X0234896Y0364899D02*
X0234932Y0364899D01*
X0236031Y0362932D02*
X0236068Y0362932D01*
X0237167Y0360965D02*
X0237203Y0360965D01*
X0238303Y0358998D02*
X0238339Y0358998D01*
X0239438Y0357031D02*
X0239475Y0357031D01*
X0239757Y0357031D02*
X0317446Y0357031D01*
X0313859Y0358998D02*
X0270485Y0358998D01*
X0270238Y0358751D02*
X0271724Y0360237D01*
X0272528Y0362179D01*
X0272528Y0364282D01*
X0271724Y0366224D01*
X0270238Y0367710D01*
X0268295Y0368515D01*
X0266193Y0368515D01*
X0264251Y0367710D01*
X0262764Y0366224D01*
X0262244Y0364968D01*
X0261724Y0366224D01*
X0260238Y0367710D01*
X0258295Y0368515D01*
X0256193Y0368515D01*
X0254251Y0367710D01*
X0252764Y0366224D01*
X0251960Y0364282D01*
X0251960Y0362179D01*
X0252764Y0360237D01*
X0254251Y0358751D01*
X0256193Y0357946D01*
X0258295Y0357946D01*
X0260238Y0358751D01*
X0261724Y0360237D01*
X0262244Y0361493D01*
X0262764Y0360237D01*
X0264251Y0358751D01*
X0266193Y0357946D01*
X0268295Y0357946D01*
X0270238Y0358751D01*
X0272025Y0360965D02*
X0309905Y0360965D01*
X0305094Y0362932D02*
X0272528Y0362932D01*
X0272273Y0364899D02*
X0300167Y0364899D01*
X0293185Y0366866D02*
X0271082Y0366866D01*
X0270447Y0370800D02*
X0253994Y0370800D01*
X0254960Y0372767D02*
X0269481Y0372767D01*
X0263407Y0366866D02*
X0261082Y0366866D01*
X0262025Y0360965D02*
X0262463Y0360965D01*
X0264004Y0358998D02*
X0260485Y0358998D01*
X0254004Y0358998D02*
X0241625Y0358998D01*
X0242306Y0360965D02*
X0252463Y0360965D01*
X0251960Y0362932D02*
X0242267Y0362932D01*
X0241482Y0364899D02*
X0252216Y0364899D01*
X0253407Y0366866D02*
X0239318Y0366866D01*
X0240508Y0368833D02*
X0283933Y0368833D01*
X0271844Y0331148D02*
X0270597Y0331148D01*
X0269445Y0330671D01*
X0268563Y0329790D01*
X0268086Y0328638D01*
X0268086Y0327391D01*
X0268563Y0326239D01*
X0269445Y0325357D01*
X0270597Y0324880D01*
X0271690Y0324880D01*
X0272586Y0323984D01*
X0272586Y0322891D01*
X0273063Y0321739D01*
X0273945Y0320857D01*
X0275097Y0320380D01*
X0276344Y0320380D01*
X0277496Y0320857D01*
X0278378Y0321739D01*
X0278855Y0322891D01*
X0278855Y0324138D01*
X0278378Y0325290D01*
X0277496Y0326171D01*
X0276344Y0326648D01*
X0275251Y0326648D01*
X0274355Y0327545D01*
X0274355Y0328638D01*
X0273878Y0329790D01*
X0272996Y0330671D01*
X0271844Y0331148D01*
X0274001Y0329493D02*
X0349059Y0329493D01*
X0347669Y0331460D02*
X0213740Y0331460D01*
X0215707Y0329493D02*
X0268440Y0329493D01*
X0268086Y0327526D02*
X0217674Y0327526D01*
X0219641Y0325559D02*
X0269243Y0325559D01*
X0272586Y0323592D02*
X0221608Y0323592D01*
X0223575Y0321625D02*
X0273178Y0321625D01*
X0278263Y0321625D02*
X0354562Y0321625D01*
X0355640Y0319658D02*
X0225542Y0319658D01*
X0227509Y0317691D02*
X0356719Y0317691D01*
X0357798Y0315724D02*
X0229476Y0315724D01*
X0231443Y0313757D02*
X0358876Y0313757D01*
X0359955Y0311790D02*
X0233410Y0311790D01*
X0235377Y0309823D02*
X0360766Y0309823D01*
X0361570Y0307856D02*
X0237344Y0307856D01*
X0239311Y0305889D02*
X0362374Y0305889D01*
X0363178Y0303921D02*
X0289846Y0303921D01*
X0291148Y0301954D02*
X0363983Y0301954D01*
X0364667Y0299987D02*
X0292012Y0299987D01*
X0293979Y0298020D02*
X0365221Y0298020D01*
X0365775Y0296053D02*
X0295946Y0296053D01*
X0297913Y0294086D02*
X0366329Y0294086D01*
X0366883Y0292119D02*
X0299880Y0292119D01*
X0301847Y0290152D02*
X0367437Y0290152D01*
X0367812Y0288185D02*
X0303814Y0288185D01*
X0305781Y0286218D02*
X0368132Y0286218D01*
X0368452Y0284251D02*
X0307748Y0284251D01*
X0309715Y0282284D02*
X0368771Y0282284D01*
X0369091Y0280317D02*
X0311682Y0280317D01*
X0313649Y0278350D02*
X0369411Y0278350D01*
X0369577Y0276383D02*
X0315616Y0276383D01*
X0316305Y0274416D02*
X0369726Y0274416D01*
X0369876Y0272449D02*
X0364916Y0272449D01*
X0362261Y0272449D02*
X0316305Y0272449D01*
X0316305Y0270482D02*
X0359318Y0270482D01*
X0358381Y0268515D02*
X0316305Y0268515D01*
X0316305Y0266548D02*
X0358305Y0266548D01*
X0358987Y0264581D02*
X0316305Y0264581D01*
X0316305Y0262614D02*
X0361044Y0262614D01*
X0359483Y0260647D02*
X0316305Y0260647D01*
X0316305Y0258680D02*
X0358449Y0258680D01*
X0358305Y0256713D02*
X0316305Y0256713D01*
X0316305Y0254746D02*
X0358919Y0254746D01*
X0360645Y0252779D02*
X0316305Y0252779D01*
X0316305Y0250812D02*
X0369726Y0250812D01*
X0369577Y0248845D02*
X0316305Y0248845D01*
X0316305Y0246878D02*
X0369411Y0246878D01*
X0369091Y0244911D02*
X0316305Y0244911D01*
X0316305Y0242944D02*
X0368771Y0242944D01*
X0368452Y0240977D02*
X0316305Y0240977D01*
X0316305Y0239010D02*
X0368132Y0239010D01*
X0367812Y0237043D02*
X0316305Y0237043D01*
X0316305Y0235076D02*
X0367437Y0235076D01*
X0366883Y0233109D02*
X0316305Y0233109D01*
X0316305Y0231142D02*
X0366329Y0231142D01*
X0365775Y0229175D02*
X0316305Y0229175D01*
X0316305Y0227208D02*
X0365221Y0227208D01*
X0364667Y0225241D02*
X0316305Y0225241D01*
X0316305Y0223274D02*
X0338686Y0223274D01*
X0337530Y0223070D02*
X0336189Y0221154D01*
X0340832Y0217903D01*
X0340814Y0217877D01*
X0336171Y0221129D01*
X0334829Y0219213D01*
X0335188Y0217179D01*
X0334496Y0217871D01*
X0333344Y0218348D01*
X0332097Y0218348D01*
X0330945Y0217871D01*
X0330063Y0216990D01*
X0329586Y0215838D01*
X0329586Y0214591D01*
X0330063Y0213439D01*
X0327733Y0213439D01*
X0327896Y0213371D02*
X0326744Y0213848D01*
X0325497Y0213848D01*
X0324345Y0213371D01*
X0323463Y0212490D01*
X0322986Y0211338D01*
X0322986Y0210091D01*
X0323463Y0208939D01*
X0324345Y0208057D01*
X0325497Y0207580D01*
X0326590Y0207580D01*
X0327140Y0207030D01*
X0328040Y0207030D01*
X0328380Y0206690D01*
X0326291Y0206322D01*
X0323780Y0202736D01*
X0324541Y0198425D01*
X0328127Y0195914D01*
X0331646Y0196535D01*
X0330729Y0195225D01*
X0330957Y0193932D01*
X0338093Y0188935D01*
X0339386Y0189163D01*
X0344383Y0196300D01*
X0344155Y0197592D01*
X0342846Y0198509D01*
X0346365Y0199130D01*
X0348876Y0202716D01*
X0348185Y0206631D01*
X0352101Y0207321D01*
X0354612Y0210907D01*
X0353851Y0215219D01*
X0350266Y0217729D01*
X0346744Y0217108D01*
X0346025Y0221187D01*
X0344109Y0222528D01*
X0340858Y0217885D01*
X0340832Y0217903D01*
X0344083Y0222546D01*
X0342168Y0223888D01*
X0337530Y0223070D01*
X0336296Y0221307D02*
X0316305Y0221307D01*
X0316305Y0219340D02*
X0334918Y0219340D01*
X0334994Y0217373D02*
X0335154Y0217373D01*
X0338725Y0219340D02*
X0338780Y0219340D01*
X0341838Y0219340D02*
X0341877Y0219340D01*
X0343216Y0221307D02*
X0343254Y0221307D01*
X0343045Y0223274D02*
X0363983Y0223274D01*
X0363178Y0221307D02*
X0345854Y0221307D01*
X0346351Y0219340D02*
X0362374Y0219340D01*
X0361570Y0217373D02*
X0350775Y0217373D01*
X0348243Y0217373D02*
X0346698Y0217373D01*
X0353584Y0215406D02*
X0360766Y0215406D01*
X0359955Y0213439D02*
X0354165Y0213439D01*
X0354512Y0211472D02*
X0358877Y0211472D01*
X0357798Y0209505D02*
X0353629Y0209505D01*
X0352252Y0207538D02*
X0356719Y0207538D01*
X0355640Y0205571D02*
X0348372Y0205571D01*
X0348719Y0203604D02*
X0354562Y0203604D01*
X0353229Y0201637D02*
X0348120Y0201637D01*
X0346743Y0199670D02*
X0351839Y0199670D01*
X0350449Y0197703D02*
X0343998Y0197703D01*
X0343988Y0195736D02*
X0349059Y0195736D01*
X0347669Y0193769D02*
X0342611Y0193769D01*
X0341234Y0191802D02*
X0345926Y0191802D01*
X0344170Y0189835D02*
X0339856Y0189835D01*
X0336809Y0189835D02*
X0298905Y0189835D01*
X0298905Y0191802D02*
X0334000Y0191802D01*
X0331190Y0193769D02*
X0298905Y0193769D01*
X0298905Y0195736D02*
X0331086Y0195736D01*
X0325572Y0197703D02*
X0302570Y0197703D01*
X0302841Y0199670D02*
X0324321Y0199670D01*
X0323974Y0201637D02*
X0301605Y0201637D01*
X0301605Y0203604D02*
X0324388Y0203604D01*
X0325765Y0205571D02*
X0301742Y0205571D01*
X0303709Y0207538D02*
X0326632Y0207538D01*
X0323229Y0209505D02*
X0311044Y0209505D01*
X0312155Y0211472D02*
X0323042Y0211472D01*
X0324508Y0213439D02*
X0311781Y0213439D01*
X0313377Y0215406D02*
X0329586Y0215406D01*
X0330063Y0213439D02*
X0330776Y0212726D01*
X0329516Y0210928D01*
X0329539Y0210798D01*
X0329255Y0210798D01*
X0329255Y0211338D01*
X0328778Y0212490D01*
X0327896Y0213371D01*
X0329199Y0211472D02*
X0329897Y0211472D01*
X0330447Y0217373D02*
X0315344Y0217373D01*
X0309536Y0219340D02*
X0307871Y0219340D01*
X0307740Y0217373D02*
X0308214Y0217373D01*
X0306247Y0215406D02*
X0305506Y0215406D01*
X0304135Y0215406D02*
X0299461Y0215406D01*
X0300155Y0213439D02*
X0304280Y0213439D01*
X0302313Y0211472D02*
X0299511Y0211472D01*
X0298905Y0209505D02*
X0300346Y0209505D01*
X0295136Y0209505D02*
X0283605Y0209505D01*
X0283605Y0211472D02*
X0290330Y0211472D01*
X0289086Y0213439D02*
X0283605Y0213439D01*
X0283605Y0215406D02*
X0289404Y0215406D01*
X0289736Y0217373D02*
X0283605Y0217373D01*
X0283605Y0219340D02*
X0290081Y0219340D01*
X0292048Y0221307D02*
X0283605Y0221307D01*
X0283605Y0223274D02*
X0294015Y0223274D01*
X0294478Y0225241D02*
X0283605Y0225241D01*
X0283605Y0227208D02*
X0286594Y0227208D01*
X0286263Y0227539D02*
X0287145Y0226657D01*
X0288297Y0226180D01*
X0289544Y0226180D01*
X0290696Y0226657D01*
X0291578Y0227539D01*
X0292055Y0228691D01*
X0292055Y0229784D01*
X0293851Y0231580D01*
X0294944Y0231580D01*
X0296096Y0232057D01*
X0296978Y0232939D01*
X0297455Y0234091D01*
X0297455Y0235338D01*
X0296978Y0236490D01*
X0296096Y0237371D01*
X0294944Y0237848D01*
X0293697Y0237848D01*
X0292545Y0237371D01*
X0291663Y0236490D01*
X0291186Y0235338D01*
X0291186Y0234245D01*
X0289390Y0232448D01*
X0288297Y0232448D01*
X0287145Y0231971D01*
X0286263Y0231090D01*
X0285786Y0229938D01*
X0285786Y0228691D01*
X0286263Y0227539D01*
X0285786Y0229175D02*
X0283605Y0229175D01*
X0283605Y0231142D02*
X0286316Y0231142D01*
X0283605Y0233109D02*
X0290051Y0233109D01*
X0291186Y0235076D02*
X0283605Y0235076D01*
X0283605Y0237043D02*
X0292217Y0237043D01*
X0296424Y0237043D02*
X0301627Y0237043D01*
X0303594Y0235076D02*
X0297455Y0235076D01*
X0297048Y0233109D02*
X0305561Y0233109D01*
X0306236Y0231142D02*
X0293413Y0231142D01*
X0292055Y0229175D02*
X0306236Y0229175D01*
X0305222Y0227208D02*
X0291247Y0227208D01*
X0299146Y0221307D02*
X0302936Y0221307D01*
X0301770Y0219340D02*
X0295411Y0219340D01*
X0293505Y0217373D02*
X0301901Y0217373D01*
X0301693Y0223274D02*
X0300448Y0223274D01*
X0300163Y0225241D02*
X0301978Y0225241D01*
X0306705Y0221307D02*
X0308787Y0221307D01*
X0306997Y0209505D02*
X0305676Y0209505D01*
X0295136Y0207538D02*
X0283605Y0207538D01*
X0283605Y0205571D02*
X0295136Y0205571D01*
X0295136Y0203604D02*
X0283605Y0203604D01*
X0283605Y0201637D02*
X0295136Y0201637D01*
X0295136Y0199670D02*
X0283605Y0199670D01*
X0283605Y0197703D02*
X0295136Y0197703D01*
X0295136Y0195736D02*
X0283605Y0195736D01*
X0283605Y0193769D02*
X0295136Y0193769D01*
X0295136Y0191802D02*
X0283605Y0191802D01*
X0283605Y0189835D02*
X0295136Y0189835D01*
X0295136Y0187868D02*
X0283605Y0187868D01*
X0283605Y0185901D02*
X0295136Y0185901D01*
X0295136Y0183934D02*
X0283605Y0183934D01*
X0283605Y0181967D02*
X0295136Y0181967D01*
X0295136Y0180000D02*
X0283605Y0180000D01*
X0283605Y0178033D02*
X0295136Y0178033D01*
X0295704Y0176066D02*
X0283375Y0176066D01*
X0281618Y0174098D02*
X0295203Y0174098D01*
X0294221Y0172131D02*
X0279651Y0172131D01*
X0277684Y0170164D02*
X0286433Y0170164D01*
X0285279Y0168197D02*
X0275717Y0168197D01*
X0277662Y0166230D02*
X0273750Y0166230D01*
X0271783Y0164263D02*
X0276337Y0164263D01*
X0275987Y0162296D02*
X0272449Y0162296D01*
X0272660Y0160329D02*
X0276396Y0160329D01*
X0277803Y0158362D02*
X0272111Y0158362D01*
X0270506Y0156395D02*
X0283933Y0156395D01*
X0284740Y0158362D02*
X0293185Y0158362D01*
X0293511Y0162296D02*
X0305094Y0162296D01*
X0302127Y0166230D02*
X0313859Y0166230D01*
X0317446Y0168197D02*
X0304031Y0168197D01*
X0304682Y0170164D02*
X0306436Y0170164D01*
X0310485Y0170164D02*
X0321033Y0170164D01*
X0323942Y0172131D02*
X0312973Y0172131D01*
X0313745Y0174098D02*
X0316205Y0174098D01*
X0318843Y0174098D02*
X0326726Y0174098D01*
X0329509Y0176066D02*
X0321790Y0176066D01*
X0322730Y0178033D02*
X0325013Y0178033D01*
X0328160Y0178033D02*
X0332051Y0178033D01*
X0331071Y0180000D02*
X0334255Y0180000D01*
X0332066Y0181967D02*
X0336459Y0181967D01*
X0338663Y0183934D02*
X0332271Y0183934D01*
X0331702Y0185901D02*
X0340659Y0185901D01*
X0342415Y0187868D02*
X0330243Y0187868D01*
X0330290Y0187834D02*
X0329566Y0188360D01*
X0328769Y0188766D01*
X0327918Y0189042D01*
X0327034Y0189182D01*
X0326139Y0189182D01*
X0325256Y0189042D01*
X0324405Y0188766D01*
X0324197Y0188660D01*
X0326594Y0183519D01*
X0331734Y0185916D01*
X0331448Y0186477D01*
X0330922Y0187201D01*
X0330290Y0187834D01*
X0327558Y0183934D02*
X0327484Y0183934D01*
X0326401Y0183934D02*
X0326366Y0183934D01*
X0325484Y0185901D02*
X0325449Y0185901D01*
X0324566Y0187868D02*
X0324532Y0187868D01*
X0322930Y0187868D02*
X0298905Y0187868D01*
X0298905Y0185901D02*
X0321431Y0185901D01*
X0320902Y0183934D02*
X0320077Y0183934D01*
X0314970Y0183934D02*
X0298905Y0183934D01*
X0298905Y0181967D02*
X0312920Y0181967D01*
X0312239Y0180000D02*
X0310309Y0180000D01*
X0306612Y0180000D02*
X0298905Y0180000D01*
X0299067Y0178033D02*
X0303978Y0178033D01*
X0303176Y0176066D02*
X0300541Y0176066D01*
X0296668Y0166230D02*
X0295619Y0166230D01*
X0295089Y0164263D02*
X0309905Y0164263D01*
X0300167Y0160329D02*
X0286147Y0160329D01*
X0286556Y0162296D02*
X0287158Y0162296D01*
X0285050Y0166230D02*
X0284881Y0166230D01*
X0270447Y0154428D02*
X0253994Y0154428D01*
X0254244Y0156395D02*
X0251011Y0156395D01*
X0252639Y0158362D02*
X0249170Y0158362D01*
X0247329Y0160329D02*
X0252091Y0160329D01*
X0252301Y0162296D02*
X0245488Y0162296D01*
X0243647Y0164263D02*
X0252958Y0164263D01*
X0250991Y0166230D02*
X0241806Y0166230D01*
X0239964Y0168197D02*
X0249024Y0168197D01*
X0247057Y0170164D02*
X0238123Y0170164D01*
X0236282Y0172131D02*
X0245090Y0172131D01*
X0243123Y0174098D02*
X0234441Y0174098D01*
X0232600Y0176066D02*
X0241156Y0176066D01*
X0240536Y0178033D02*
X0230759Y0178033D01*
X0228918Y0180000D02*
X0240536Y0180000D01*
X0240536Y0181967D02*
X0227077Y0181967D01*
X0225235Y0183934D02*
X0240536Y0183934D01*
X0240536Y0185901D02*
X0223394Y0185901D01*
X0221553Y0187868D02*
X0240536Y0187868D01*
X0240536Y0189835D02*
X0219712Y0189835D01*
X0217871Y0191802D02*
X0240536Y0191802D01*
X0240536Y0193769D02*
X0216030Y0193769D01*
X0214189Y0195736D02*
X0240536Y0195736D01*
X0240536Y0197703D02*
X0212348Y0197703D01*
X0210506Y0199670D02*
X0240536Y0199670D01*
X0240536Y0201637D02*
X0208665Y0201637D01*
X0165055Y0253483D02*
X0163113Y0252678D01*
X0161011Y0252678D01*
X0159069Y0253483D01*
X0157582Y0254969D01*
X0156778Y0256911D01*
X0156778Y0259013D01*
X0157582Y0260956D01*
X0159069Y0262442D01*
X0160325Y0262962D01*
X0159069Y0263483D01*
X0157582Y0264969D01*
X0156778Y0266911D01*
X0156778Y0269013D01*
X0157582Y0270956D01*
X0159069Y0272442D01*
X0161011Y0273247D01*
X0163113Y0273247D01*
X0165055Y0272442D01*
X0166542Y0270956D01*
X0167346Y0269013D01*
X0167346Y0266911D01*
X0166542Y0264969D01*
X0165055Y0263483D01*
X0163799Y0262962D01*
X0165055Y0262442D01*
X0166542Y0260956D01*
X0167346Y0259013D01*
X0167346Y0256911D01*
X0166542Y0254969D01*
X0165055Y0253483D01*
X0166319Y0254746D02*
X0252251Y0254746D01*
X0254206Y0252779D02*
X0163357Y0252779D01*
X0160767Y0252779D02*
X0154565Y0252779D01*
X0153651Y0254746D02*
X0157805Y0254746D01*
X0156860Y0256713D02*
X0152378Y0256713D01*
X0152378Y0258680D02*
X0156778Y0258680D01*
X0157455Y0260647D02*
X0152378Y0260647D01*
X0152378Y0262614D02*
X0159484Y0262614D01*
X0157970Y0264581D02*
X0152378Y0264581D01*
X0152456Y0266548D02*
X0156928Y0266548D01*
X0156778Y0268515D02*
X0152537Y0268515D01*
X0153651Y0270482D02*
X0157386Y0270482D01*
X0159086Y0272449D02*
X0154565Y0272449D01*
X0154715Y0274416D02*
X0232703Y0274416D01*
X0234658Y0272449D02*
X0165038Y0272449D01*
X0166738Y0270482D02*
X0236613Y0270482D01*
X0238568Y0268515D02*
X0167346Y0268515D01*
X0167196Y0266548D02*
X0240522Y0266548D01*
X0242477Y0264581D02*
X0166154Y0264581D01*
X0164640Y0262614D02*
X0244432Y0262614D01*
X0246387Y0260647D02*
X0166670Y0260647D01*
X0167346Y0258680D02*
X0248341Y0258680D01*
X0250296Y0256713D02*
X0167264Y0256713D01*
X0154864Y0276383D02*
X0230748Y0276383D01*
X0228794Y0278350D02*
X0155030Y0278350D01*
X0155350Y0280317D02*
X0226839Y0280317D01*
X0224884Y0282284D02*
X0155670Y0282284D01*
X0155989Y0284251D02*
X0222929Y0284251D01*
X0220975Y0286218D02*
X0156309Y0286218D01*
X0156629Y0288185D02*
X0219020Y0288185D01*
X0217065Y0290152D02*
X0157003Y0290152D01*
X0157558Y0292119D02*
X0167049Y0292119D01*
X0167934Y0291753D02*
X0165992Y0292557D01*
X0164506Y0294044D01*
X0163701Y0295986D01*
X0163701Y0298088D01*
X0164506Y0300030D01*
X0165992Y0301517D01*
X0167934Y0302321D01*
X0169517Y0302321D01*
X0168732Y0303107D01*
X0167927Y0305049D01*
X0167927Y0307151D01*
X0168732Y0309093D01*
X0170218Y0310580D01*
X0172161Y0311384D01*
X0173744Y0311384D01*
X0172958Y0312170D01*
X0172154Y0314112D01*
X0172154Y0316214D01*
X0172958Y0318157D01*
X0174445Y0319643D01*
X0176387Y0320448D01*
X0178489Y0320448D01*
X0180431Y0319643D01*
X0181918Y0318157D01*
X0182722Y0316214D01*
X0182722Y0314112D01*
X0181918Y0312170D01*
X0180431Y0310684D01*
X0178489Y0309879D01*
X0176906Y0309879D01*
X0177691Y0309093D01*
X0178496Y0307151D01*
X0178496Y0305049D01*
X0177691Y0303107D01*
X0176205Y0301620D01*
X0174263Y0300816D01*
X0172680Y0300816D01*
X0173465Y0300030D01*
X0174270Y0298088D01*
X0174270Y0295986D01*
X0173465Y0294044D01*
X0171979Y0292557D01*
X0170037Y0291753D01*
X0167934Y0291753D01*
X0170921Y0292119D02*
X0215110Y0292119D01*
X0213155Y0294086D02*
X0173483Y0294086D01*
X0174270Y0296053D02*
X0211201Y0296053D01*
X0209229Y0298020D02*
X0191641Y0298020D01*
X0191414Y0297794D02*
X0192900Y0299280D01*
X0193705Y0301222D01*
X0193705Y0303324D01*
X0192900Y0305267D01*
X0192515Y0305652D01*
X0193094Y0305652D01*
X0193978Y0305792D01*
X0194829Y0306069D01*
X0195626Y0306475D01*
X0196350Y0307001D01*
X0196982Y0307633D01*
X0197508Y0308357D01*
X0197794Y0308919D01*
X0192654Y0311315D01*
X0192668Y0311344D01*
X0197809Y0308947D01*
X0197915Y0309154D01*
X0198191Y0310005D01*
X0198331Y0310889D01*
X0198331Y0311784D01*
X0198191Y0312667D01*
X0197915Y0313518D01*
X0197508Y0314316D01*
X0196982Y0315039D01*
X0196350Y0315672D01*
X0195626Y0316198D01*
X0195064Y0316484D01*
X0192668Y0311344D01*
X0192639Y0311357D01*
X0192626Y0311329D01*
X0187485Y0313726D01*
X0187379Y0313518D01*
X0187102Y0312667D01*
X0186962Y0311784D01*
X0186962Y0310889D01*
X0187102Y0310005D01*
X0187379Y0309154D01*
X0187785Y0308357D01*
X0188311Y0307633D01*
X0188387Y0307558D01*
X0187369Y0307558D01*
X0185427Y0306753D01*
X0183941Y0305267D01*
X0183136Y0303324D01*
X0183136Y0301222D01*
X0183941Y0299280D01*
X0185427Y0297794D01*
X0187369Y0296989D01*
X0189472Y0296989D01*
X0191414Y0297794D01*
X0193193Y0299987D02*
X0209113Y0299987D01*
X0209081Y0301954D02*
X0193705Y0301954D01*
X0193457Y0303921D02*
X0209050Y0303921D01*
X0209018Y0305889D02*
X0194275Y0305889D01*
X0197144Y0307856D02*
X0208987Y0307856D01*
X0208955Y0309823D02*
X0198132Y0309823D01*
X0198330Y0311790D02*
X0208924Y0311790D01*
X0208892Y0313757D02*
X0197793Y0313757D01*
X0196279Y0315724D02*
X0208861Y0315724D01*
X0208829Y0317691D02*
X0182111Y0317691D01*
X0182722Y0315724D02*
X0189015Y0315724D01*
X0188944Y0315672D02*
X0188311Y0315039D01*
X0187785Y0314316D01*
X0187499Y0313754D01*
X0192639Y0311357D01*
X0195036Y0316498D01*
X0194829Y0316604D01*
X0193978Y0316881D01*
X0193094Y0317021D01*
X0192199Y0317021D01*
X0191316Y0316881D01*
X0190465Y0316604D01*
X0189668Y0316198D01*
X0188944Y0315672D01*
X0187500Y0313757D02*
X0182575Y0313757D01*
X0181537Y0311790D02*
X0186963Y0311790D01*
X0187162Y0309823D02*
X0176962Y0309823D01*
X0178204Y0307856D02*
X0188150Y0307856D01*
X0184563Y0305889D02*
X0178496Y0305889D01*
X0178029Y0303921D02*
X0183384Y0303921D01*
X0183136Y0301954D02*
X0176539Y0301954D01*
X0173483Y0299987D02*
X0183648Y0299987D01*
X0185200Y0298020D02*
X0174270Y0298020D01*
X0168394Y0303921D02*
X0161262Y0303921D01*
X0160458Y0301954D02*
X0167049Y0301954D01*
X0164488Y0299987D02*
X0159774Y0299987D01*
X0159220Y0298020D02*
X0163701Y0298020D01*
X0163701Y0296053D02*
X0158666Y0296053D01*
X0158112Y0294086D02*
X0164488Y0294086D01*
X0162067Y0305889D02*
X0167927Y0305889D01*
X0168219Y0307856D02*
X0162871Y0307856D01*
X0163675Y0309823D02*
X0169461Y0309823D01*
X0173338Y0311790D02*
X0164486Y0311790D01*
X0165564Y0313757D02*
X0172301Y0313757D01*
X0172154Y0315724D02*
X0166643Y0315724D01*
X0167722Y0317691D02*
X0172765Y0317691D01*
X0174480Y0319658D02*
X0168801Y0319658D01*
X0169879Y0321625D02*
X0208078Y0321625D01*
X0207486Y0323592D02*
X0171212Y0323592D01*
X0172602Y0325559D02*
X0208232Y0325559D01*
X0208798Y0319658D02*
X0180396Y0319658D01*
X0191637Y0311790D02*
X0191712Y0311790D01*
X0192841Y0311790D02*
X0192875Y0311790D01*
X0193758Y0313757D02*
X0193793Y0313757D01*
X0194675Y0315724D02*
X0194710Y0315724D01*
X0195856Y0309823D02*
X0195930Y0309823D01*
X0197459Y0333427D02*
X0206443Y0333427D01*
X0204476Y0335394D02*
X0198512Y0335394D01*
X0198670Y0337361D02*
X0199040Y0337361D01*
X0206731Y0339328D02*
X0340659Y0339328D01*
X0342415Y0337361D02*
X0207839Y0337361D01*
X0209806Y0335394D02*
X0344170Y0335394D01*
X0345926Y0333427D02*
X0211773Y0333427D01*
X0207331Y0341295D02*
X0338663Y0341295D01*
X0336459Y0343262D02*
X0214614Y0343262D01*
X0215764Y0345229D02*
X0334255Y0345229D01*
X0332051Y0347196D02*
X0221994Y0347196D01*
X0223983Y0349163D02*
X0329509Y0349163D01*
X0326726Y0351130D02*
X0224651Y0351130D01*
X0216739Y0347196D02*
X0215991Y0347196D01*
X0214083Y0351130D02*
X0213877Y0351130D01*
X0219347Y0362932D02*
X0231107Y0362932D01*
X0233311Y0357031D02*
X0233618Y0357031D01*
X0233016Y0355064D02*
X0321033Y0355064D01*
X0323942Y0353097D02*
X0231770Y0353097D01*
X0238570Y0362932D02*
X0238633Y0362932D01*
X0274374Y0327526D02*
X0350449Y0327526D01*
X0351839Y0325559D02*
X0278108Y0325559D01*
X0278855Y0323592D02*
X0353229Y0323592D01*
X0367859Y0270482D02*
X0370801Y0270482D01*
X0372219Y0268515D02*
X0368797Y0268515D01*
X0368873Y0266548D02*
X0372300Y0266548D01*
X0372375Y0260647D02*
X0367694Y0260647D01*
X0368728Y0258680D02*
X0372294Y0258680D01*
X0372213Y0256713D02*
X0368873Y0256713D01*
X0368259Y0254746D02*
X0370801Y0254746D01*
X0369876Y0252779D02*
X0366532Y0252779D01*
X0299660Y0239010D02*
X0285330Y0239010D01*
X0287297Y0240977D02*
X0297693Y0240977D01*
X0295726Y0242944D02*
X0289264Y0242944D01*
X0291231Y0244911D02*
X0291991Y0244911D01*
X0288138Y0248845D02*
X0279705Y0248845D01*
X0279705Y0246878D02*
X0286171Y0246878D01*
X0284204Y0244911D02*
X0279705Y0244911D01*
X0279705Y0242944D02*
X0282237Y0242944D01*
X0280270Y0240977D02*
X0279705Y0240977D01*
X0275936Y0235076D02*
X0275805Y0235076D01*
X0275805Y0233109D02*
X0275936Y0233109D01*
X0275936Y0231142D02*
X0275805Y0231142D01*
X0275805Y0229175D02*
X0275936Y0229175D01*
X0275936Y0227208D02*
X0275805Y0227208D01*
X0275805Y0225241D02*
X0275936Y0225241D01*
X0275936Y0223274D02*
X0275805Y0223274D01*
X0275805Y0221307D02*
X0275936Y0221307D01*
X0275936Y0219340D02*
X0275805Y0219340D01*
X0275805Y0217373D02*
X0275936Y0217373D01*
X0275936Y0215406D02*
X0275805Y0215406D01*
X0275805Y0213439D02*
X0275936Y0213439D01*
X0275936Y0211472D02*
X0275805Y0211472D01*
X0275805Y0209505D02*
X0275936Y0209505D01*
X0275936Y0207538D02*
X0275805Y0207538D01*
X0275805Y0205571D02*
X0275936Y0205571D01*
X0275936Y0203604D02*
X0275805Y0203604D01*
X0275805Y0201637D02*
X0275936Y0201637D01*
X0275936Y0199670D02*
X0275805Y0199670D01*
X0275805Y0197703D02*
X0275936Y0197703D01*
X0275936Y0195736D02*
X0275805Y0195736D01*
X0275805Y0193769D02*
X0275936Y0193769D01*
X0275936Y0191802D02*
X0275805Y0191802D01*
X0275805Y0189835D02*
X0275936Y0189835D01*
X0275936Y0187868D02*
X0275805Y0187868D01*
X0294111Y0211472D02*
X0294530Y0211472D01*
X0327283Y0181967D02*
X0327318Y0181967D01*
X0328201Y0180000D02*
X0328235Y0180000D01*
X0264244Y0156395D02*
X0260506Y0156395D01*
X0262111Y0158362D02*
X0262639Y0158362D01*
X0279705Y0250812D02*
X0290105Y0250812D01*
X0290936Y0252779D02*
X0279705Y0252779D01*
X0279705Y0254746D02*
X0290936Y0254746D01*
X0290936Y0256713D02*
X0279705Y0256713D01*
X0279705Y0258680D02*
X0290936Y0258680D01*
X0290936Y0260647D02*
X0279705Y0260647D01*
X0279705Y0262614D02*
X0290936Y0262614D01*
X0290936Y0264581D02*
X0279705Y0264581D01*
X0278651Y0266548D02*
X0290936Y0266548D01*
X0290936Y0268515D02*
X0276684Y0268515D01*
X0278601Y0266598D02*
X0278601Y0266598D01*
X0275289Y0264581D02*
X0268008Y0264581D01*
X0268008Y0262614D02*
X0275936Y0262614D01*
X0275936Y0260647D02*
X0268008Y0260647D01*
X0268008Y0258680D02*
X0275936Y0258680D01*
X0275936Y0256713D02*
X0268008Y0256713D01*
X0268008Y0266548D02*
X0273322Y0266548D01*
X0271355Y0268515D02*
X0267948Y0268515D01*
X0269388Y0270482D02*
X0241926Y0270482D01*
X0239971Y0272449D02*
X0267421Y0272449D01*
X0265454Y0274416D02*
X0238016Y0274416D01*
X0255047Y0290152D02*
X0290936Y0290152D01*
X0290936Y0288185D02*
X0257014Y0288185D01*
X0258981Y0286218D02*
X0290936Y0286218D01*
X0290936Y0284251D02*
X0260948Y0284251D01*
X0262915Y0282284D02*
X0290936Y0282284D01*
X0290936Y0280317D02*
X0264882Y0280317D01*
X0266849Y0278350D02*
X0290936Y0278350D01*
X0290936Y0276383D02*
X0268816Y0276383D01*
X0270783Y0274416D02*
X0290936Y0274416D01*
X0290936Y0272449D02*
X0272750Y0272449D01*
X0274717Y0270482D02*
X0290936Y0270482D01*
X0290286Y0292119D02*
X0253080Y0292119D01*
X0251113Y0294086D02*
X0290762Y0294086D01*
X0290616Y0296053D02*
X0249146Y0296053D01*
X0247179Y0298020D02*
X0288649Y0298020D01*
X0285178Y0299987D02*
X0245212Y0299987D01*
X0243245Y0301954D02*
X0284893Y0301954D01*
X0286195Y0303921D02*
X0241278Y0303921D01*
D14*
X0266157Y0306315D03*
X0275720Y0323514D03*
X0271220Y0328014D03*
X0280724Y0338205D03*
X0299228Y0320488D03*
X0288020Y0301314D03*
X0293420Y0292314D03*
X0299622Y0298047D03*
X0310252Y0286236D03*
X0334661Y0284268D03*
X0355528Y0311039D03*
X0294320Y0247014D03*
X0284661Y0248047D03*
X0294320Y0234714D03*
X0288920Y0229314D03*
X0297320Y0223914D03*
X0294320Y0217314D03*
X0292220Y0214014D03*
X0297020Y0213414D03*
X0304820Y0218514D03*
X0304820Y0223914D03*
X0308120Y0226014D03*
X0311720Y0222414D03*
X0309020Y0211914D03*
X0299720Y0199014D03*
X0292220Y0197814D03*
X0285449Y0189386D03*
X0277820Y0184014D03*
X0273920Y0183114D03*
X0270020Y0184014D03*
X0266120Y0184014D03*
X0243020Y0216732D03*
X0238598Y0217732D03*
X0234268Y0214976D03*
X0233874Y0222457D03*
X0226000Y0229937D03*
X0220094Y0235843D03*
X0212220Y0240173D03*
X0203953Y0238992D03*
X0199228Y0233480D03*
X0212614Y0203953D03*
X0218913Y0197260D03*
X0224819Y0203559D03*
X0229543Y0209071D03*
X0267620Y0233514D03*
X0246077Y0249001D03*
X0248835Y0255921D03*
X0200409Y0300803D03*
X0210620Y0323514D03*
X0175606Y0278362D03*
X0185449Y0270094D03*
X0326120Y0210714D03*
X0332720Y0215214D03*
D15*
X0333320Y0214614D01*
X0336620Y0214614D01*
X0337820Y0213414D01*
X0339020Y0213414D01*
X0340220Y0212214D01*
X0348920Y0212214D01*
X0349028Y0212145D01*
X0337520Y0200514D02*
X0337520Y0196014D01*
X0337556Y0195762D01*
X0337520Y0200514D02*
X0333620Y0204414D01*
X0333320Y0204414D01*
X0328820Y0208914D01*
X0327920Y0208914D01*
X0326120Y0210714D01*
X0314420Y0219114D02*
X0314420Y0274914D01*
X0288020Y0301314D01*
X0275720Y0323514D02*
X0271220Y0328014D01*
X0210620Y0323514D02*
X0211014Y0298914D01*
X0273920Y0235614D01*
X0273920Y0183114D01*
X0270020Y0184014D02*
X0267620Y0186414D01*
X0267620Y0233514D01*
X0246077Y0249001D02*
X0246077Y0204057D01*
X0266120Y0184014D01*
X0277820Y0184014D02*
X0277820Y0264714D01*
X0202220Y0340314D01*
X0202220Y0341814D01*
X0202046Y0341827D01*
X0294320Y0247014D02*
X0308120Y0233214D01*
X0308120Y0226014D01*
X0311720Y0222414D01*
X0311420Y0222414D01*
X0311420Y0217914D01*
X0299720Y0206214D01*
X0299720Y0199014D01*
X0297020Y0213414D02*
X0297020Y0177414D01*
X0298520Y0175914D01*
X0298520Y0171714D01*
X0299120Y0171114D01*
X0299397Y0170819D01*
X0309020Y0211914D02*
X0309020Y0213714D01*
X0314420Y0219114D01*
X0304820Y0218514D02*
X0304820Y0223914D01*
X0297320Y0223914D02*
X0291620Y0218214D01*
X0291620Y0214614D01*
X0292220Y0214014D01*
X0288920Y0229314D02*
X0294320Y0234714D01*
D16*
X0281120Y0238314D02*
X0293420Y0250614D01*
X0293420Y0292314D01*
X0281120Y0238314D02*
X0281120Y0177114D01*
X0267620Y0163614D01*
X0267620Y0160914D01*
X0267375Y0160737D01*
X0257375Y0160737D02*
X0257120Y0160914D01*
X0257120Y0163614D01*
X0243020Y0177714D01*
X0243020Y0216732D01*
M02*
