G75*
%MOIN*%
%OFA0B0*%
%FSLAX25Y25*%
%IPPOS*%
%LPD*%
%AMOC8*
5,1,8,0,0,1.08239X$1,22.5*
%
%ADD10R,0.05918X0.06706*%
%ADD11R,0.06950X0.01902*%
%ADD12R,0.01902X0.06950*%
%ADD13R,0.26200X0.26200*%
%ADD14R,0.08280X0.05131*%
%ADD15R,0.02178X0.03950*%
%ADD16R,0.04800X0.10800*%
%ADD17R,0.05524X0.05524*%
%ADD18C,0.08200*%
%ADD19R,0.03800X0.06800*%
%ADD20R,0.08200X0.08200*%
%ADD21C,0.01640*%
%ADD22R,0.02965X0.05524*%
%ADD23R,0.01587X0.06115*%
%ADD24R,0.06115X0.01587*%
%ADD25R,0.06706X0.05918*%
%ADD26R,0.03162X0.05131*%
%ADD27R,0.05131X0.03162*%
%ADD28R,0.04737X0.08674*%
%ADD29R,0.12217X0.10839*%
%ADD30C,0.03900*%
D10*
G36*
X0216216Y0207791D02*
X0212031Y0211976D01*
X0216772Y0216717D01*
X0220957Y0212532D01*
X0216216Y0207791D01*
G37*
G36*
X0210927Y0213081D02*
X0206742Y0217266D01*
X0211483Y0222007D01*
X0215668Y0217822D01*
X0210927Y0213081D01*
G37*
G36*
X0219034Y0220231D02*
X0214849Y0224416D01*
X0219590Y0229157D01*
X0223775Y0224972D01*
X0219034Y0220231D01*
G37*
G36*
X0224323Y0214942D02*
X0220138Y0219127D01*
X0224879Y0223868D01*
X0229064Y0219683D01*
X0224323Y0214942D01*
G37*
X0231329Y0239777D03*
X0238809Y0239777D03*
X0238779Y0254357D03*
X0231299Y0254357D03*
X0231189Y0270469D03*
X0237882Y0270469D03*
X0237854Y0285417D03*
X0231161Y0285417D03*
G36*
X0208090Y0286648D02*
X0202965Y0289607D01*
X0206318Y0295414D01*
X0211443Y0292455D01*
X0208090Y0286648D01*
G37*
G36*
X0202929Y0274232D02*
X0197804Y0277191D01*
X0201157Y0282998D01*
X0206282Y0280039D01*
X0202929Y0274232D01*
G37*
G36*
X0196451Y0277972D02*
X0191326Y0280931D01*
X0194679Y0286738D01*
X0199804Y0283779D01*
X0196451Y0277972D01*
G37*
G36*
X0186359Y0290195D02*
X0183400Y0285070D01*
X0177593Y0288423D01*
X0180552Y0293548D01*
X0186359Y0290195D01*
G37*
G36*
X0182619Y0283717D02*
X0179660Y0278592D01*
X0173853Y0281945D01*
X0176812Y0287070D01*
X0182619Y0283717D01*
G37*
G36*
X0202294Y0289994D02*
X0197169Y0292953D01*
X0200522Y0298760D01*
X0205647Y0295801D01*
X0202294Y0289994D01*
G37*
G36*
X0269988Y0341797D02*
X0274173Y0337612D01*
X0269432Y0332871D01*
X0265247Y0337056D01*
X0269988Y0341797D01*
G37*
G36*
X0274721Y0337065D02*
X0278906Y0332880D01*
X0274165Y0328139D01*
X0269980Y0332324D01*
X0274721Y0337065D01*
G37*
G36*
X0286298Y0327456D02*
X0290483Y0323271D01*
X0285742Y0318530D01*
X0281557Y0322715D01*
X0286298Y0327456D01*
G37*
G36*
X0291030Y0322723D02*
X0295215Y0318538D01*
X0290474Y0313797D01*
X0286289Y0317982D01*
X0291030Y0322723D01*
G37*
G36*
X0302003Y0311751D02*
X0306188Y0307566D01*
X0301447Y0302825D01*
X0297262Y0307010D01*
X0302003Y0311751D01*
G37*
G36*
X0306735Y0307018D02*
X0310920Y0302833D01*
X0306179Y0298092D01*
X0301994Y0302277D01*
X0306735Y0307018D01*
G37*
G36*
X0316737Y0297410D02*
X0320922Y0293225D01*
X0316181Y0288484D01*
X0311996Y0292669D01*
X0316737Y0297410D01*
G37*
G36*
X0321470Y0292677D02*
X0325655Y0288492D01*
X0320914Y0283751D01*
X0316729Y0287936D01*
X0321470Y0292677D01*
G37*
X0319875Y0272812D03*
X0313182Y0272812D03*
X0312999Y0258877D03*
X0319692Y0258877D03*
X0320154Y0245281D03*
X0312674Y0245281D03*
X0312294Y0231381D03*
X0319774Y0231381D03*
X0319416Y0216775D03*
X0312723Y0216775D03*
X0292753Y0241755D03*
X0285273Y0241755D03*
X0285371Y0254422D03*
X0292852Y0254422D03*
G36*
X0288121Y0173926D02*
X0282759Y0171425D01*
X0279925Y0177502D01*
X0285287Y0180003D01*
X0288121Y0173926D01*
G37*
G36*
X0281342Y0170764D02*
X0275980Y0168263D01*
X0273146Y0174340D01*
X0278508Y0176841D01*
X0281342Y0170764D01*
G37*
G36*
X0245568Y0174426D02*
X0249753Y0170241D01*
X0245012Y0165500D01*
X0240827Y0169685D01*
X0245568Y0174426D01*
G37*
G36*
X0240278Y0179716D02*
X0244463Y0175531D01*
X0239722Y0170790D01*
X0235537Y0174975D01*
X0240278Y0179716D01*
G37*
D11*
X0248342Y0193796D03*
X0248342Y0195764D03*
X0248342Y0197733D03*
X0248342Y0199701D03*
X0248342Y0201670D03*
X0248342Y0203638D03*
X0248342Y0205607D03*
X0248342Y0207575D03*
X0248342Y0209544D03*
X0248342Y0211512D03*
X0248342Y0213481D03*
X0248342Y0215449D03*
X0248342Y0217418D03*
X0248342Y0219386D03*
X0248342Y0221355D03*
X0248342Y0223323D03*
X0286775Y0223323D03*
X0286775Y0221355D03*
X0286775Y0219386D03*
X0286775Y0217418D03*
X0286775Y0215449D03*
X0286775Y0213481D03*
X0286775Y0211512D03*
X0286775Y0209544D03*
X0286775Y0207575D03*
X0286775Y0205607D03*
X0286775Y0203638D03*
X0286775Y0201670D03*
X0286775Y0199701D03*
X0286775Y0197733D03*
X0286775Y0195764D03*
X0286775Y0193796D03*
D12*
X0282323Y0189343D03*
X0280354Y0189343D03*
X0278386Y0189343D03*
X0276417Y0189343D03*
X0274449Y0189343D03*
X0272480Y0189343D03*
X0270512Y0189343D03*
X0268543Y0189343D03*
X0266575Y0189343D03*
X0264606Y0189343D03*
X0262638Y0189343D03*
X0260669Y0189343D03*
X0258701Y0189343D03*
X0256732Y0189343D03*
X0254764Y0189343D03*
X0252795Y0189343D03*
X0252795Y0227776D03*
X0254764Y0227776D03*
X0256732Y0227776D03*
X0258701Y0227776D03*
X0260669Y0227776D03*
X0262638Y0227776D03*
X0264606Y0227776D03*
X0266575Y0227776D03*
X0268543Y0227776D03*
X0270512Y0227776D03*
X0272480Y0227776D03*
X0274449Y0227776D03*
X0276417Y0227776D03*
X0278386Y0227776D03*
X0280354Y0227776D03*
X0282323Y0227776D03*
D13*
X0267559Y0208559D03*
D14*
X0270355Y0239127D03*
X0270355Y0248182D03*
X0255788Y0248182D03*
X0255788Y0239127D03*
D15*
G36*
X0214282Y0229584D02*
X0212742Y0228044D01*
X0209950Y0230836D01*
X0211490Y0232376D01*
X0214282Y0229584D01*
G37*
G36*
X0212472Y0227774D02*
X0210932Y0226234D01*
X0208140Y0229026D01*
X0209680Y0230566D01*
X0212472Y0227774D01*
G37*
G36*
X0210663Y0225965D02*
X0209123Y0224425D01*
X0206331Y0227217D01*
X0207871Y0228757D01*
X0210663Y0225965D01*
G37*
G36*
X0208018Y0232229D02*
X0206478Y0230689D01*
X0203686Y0233481D01*
X0205226Y0235021D01*
X0208018Y0232229D01*
G37*
G36*
X0209828Y0234038D02*
X0208288Y0232498D01*
X0205496Y0235290D01*
X0207036Y0236830D01*
X0209828Y0234038D01*
G37*
G36*
X0206208Y0230419D02*
X0204668Y0228879D01*
X0201876Y0231671D01*
X0203416Y0233211D01*
X0206208Y0230419D01*
G37*
D16*
G36*
X0183124Y0198365D02*
X0179730Y0194971D01*
X0172094Y0202607D01*
X0175488Y0206001D01*
X0183124Y0198365D01*
G37*
G36*
X0201509Y0216750D02*
X0198115Y0213356D01*
X0190479Y0220992D01*
X0193873Y0224386D01*
X0201509Y0216750D01*
G37*
D17*
G36*
X0216282Y0300624D02*
X0213520Y0295842D01*
X0208738Y0298604D01*
X0211500Y0303386D01*
X0216282Y0300624D01*
G37*
G36*
X0209122Y0304758D02*
X0206360Y0299976D01*
X0201578Y0302738D01*
X0204340Y0307520D01*
X0209122Y0304758D01*
G37*
G36*
X0347237Y0246386D02*
X0352572Y0244957D01*
X0351143Y0239622D01*
X0345808Y0241051D01*
X0347237Y0246386D01*
G37*
G36*
X0345097Y0238400D02*
X0350432Y0236971D01*
X0349003Y0231636D01*
X0343668Y0233065D01*
X0345097Y0238400D01*
G37*
G36*
X0358205Y0234825D02*
X0363540Y0233396D01*
X0362111Y0228061D01*
X0356776Y0229490D01*
X0358205Y0234825D01*
G37*
G36*
X0360345Y0242811D02*
X0365680Y0241382D01*
X0364251Y0236047D01*
X0358916Y0237476D01*
X0360345Y0242811D01*
G37*
D18*
X0363589Y0257280D03*
X0363589Y0267280D03*
X0326587Y0183498D03*
X0317524Y0179272D03*
X0308461Y0175046D03*
X0299397Y0170819D03*
X0290334Y0166593D03*
X0281271Y0162367D03*
X0267375Y0160737D03*
X0257375Y0160737D03*
X0162062Y0257962D03*
X0162062Y0267962D03*
X0168985Y0297037D03*
X0173212Y0306100D03*
X0177438Y0315163D03*
X0192647Y0311336D03*
X0188421Y0302273D03*
X0193386Y0336827D03*
X0202046Y0341827D03*
X0210707Y0346827D03*
X0219367Y0351827D03*
X0228027Y0356827D03*
X0236687Y0361827D03*
X0257244Y0363230D03*
X0267244Y0363230D03*
D19*
G36*
X0334183Y0295831D02*
X0336870Y0298518D01*
X0341677Y0293711D01*
X0338990Y0291024D01*
X0334183Y0295831D01*
G37*
G36*
X0344790Y0306437D02*
X0347477Y0309124D01*
X0352284Y0304317D01*
X0349597Y0301630D01*
X0344790Y0306437D01*
G37*
G36*
X0358932Y0292295D02*
X0361619Y0294982D01*
X0366426Y0290175D01*
X0363739Y0287488D01*
X0358932Y0292295D01*
G37*
G36*
X0348326Y0281689D02*
X0351013Y0284376D01*
X0355820Y0279569D01*
X0353133Y0276882D01*
X0348326Y0281689D01*
G37*
D20*
G36*
X0343266Y0196768D02*
X0338562Y0190052D01*
X0331846Y0194756D01*
X0336550Y0201472D01*
X0343266Y0196768D01*
G37*
D21*
X0345465Y0205041D02*
X0346285Y0205861D01*
X0346757Y0203186D01*
X0345199Y0200961D01*
X0342524Y0200489D01*
X0340299Y0202047D01*
X0339827Y0204722D01*
X0341385Y0206947D01*
X0344060Y0207419D01*
X0346285Y0205861D01*
X0345163Y0205146D01*
X0345458Y0203474D01*
X0344484Y0202083D01*
X0342812Y0201788D01*
X0341421Y0202762D01*
X0341126Y0204434D01*
X0342100Y0205825D01*
X0343772Y0206120D01*
X0345163Y0205146D01*
X0344040Y0204431D01*
X0344158Y0203762D01*
X0343769Y0203206D01*
X0343100Y0203088D01*
X0342544Y0203477D01*
X0342426Y0204146D01*
X0342815Y0204702D01*
X0343484Y0204820D01*
X0344040Y0204431D01*
X0351201Y0213232D02*
X0352021Y0214052D01*
X0352493Y0211377D01*
X0350935Y0209152D01*
X0348260Y0208680D01*
X0346035Y0210238D01*
X0345563Y0212913D01*
X0347121Y0215138D01*
X0349796Y0215610D01*
X0352021Y0214052D01*
X0350899Y0213337D01*
X0351194Y0211665D01*
X0350220Y0210274D01*
X0348548Y0209979D01*
X0347157Y0210953D01*
X0346862Y0212625D01*
X0347836Y0214016D01*
X0349508Y0214311D01*
X0350899Y0213337D01*
X0349776Y0212622D01*
X0349894Y0211953D01*
X0349505Y0211397D01*
X0348836Y0211279D01*
X0348280Y0211668D01*
X0348162Y0212337D01*
X0348551Y0212893D01*
X0349220Y0213011D01*
X0349776Y0212622D01*
X0343009Y0218968D02*
X0343829Y0219788D01*
X0344301Y0217113D01*
X0342743Y0214888D01*
X0340068Y0214416D01*
X0337843Y0215974D01*
X0337371Y0218649D01*
X0338929Y0220874D01*
X0341604Y0221346D01*
X0343829Y0219788D01*
X0342707Y0219073D01*
X0343002Y0217401D01*
X0342028Y0216010D01*
X0340356Y0215715D01*
X0338965Y0216689D01*
X0338670Y0218361D01*
X0339644Y0219752D01*
X0341316Y0220047D01*
X0342707Y0219073D01*
X0341584Y0218358D01*
X0341702Y0217689D01*
X0341313Y0217133D01*
X0340644Y0217015D01*
X0340088Y0217404D01*
X0339970Y0218073D01*
X0340359Y0218629D01*
X0341028Y0218747D01*
X0341584Y0218358D01*
X0337273Y0210777D02*
X0338093Y0211597D01*
X0338565Y0208922D01*
X0337007Y0206697D01*
X0334332Y0206225D01*
X0332107Y0207783D01*
X0331635Y0210458D01*
X0333193Y0212683D01*
X0335868Y0213155D01*
X0338093Y0211597D01*
X0336971Y0210882D01*
X0337266Y0209210D01*
X0336292Y0207819D01*
X0334620Y0207524D01*
X0333229Y0208498D01*
X0332934Y0210170D01*
X0333908Y0211561D01*
X0335580Y0211856D01*
X0336971Y0210882D01*
X0335848Y0210167D01*
X0335966Y0209498D01*
X0335577Y0208942D01*
X0334908Y0208824D01*
X0334352Y0209213D01*
X0334234Y0209882D01*
X0334623Y0210438D01*
X0335292Y0210556D01*
X0335848Y0210167D01*
X0331537Y0202585D02*
X0332357Y0203405D01*
X0332829Y0200730D01*
X0331271Y0198505D01*
X0328596Y0198033D01*
X0326371Y0199591D01*
X0325899Y0202266D01*
X0327457Y0204491D01*
X0330132Y0204963D01*
X0332357Y0203405D01*
X0331235Y0202690D01*
X0331530Y0201018D01*
X0330556Y0199627D01*
X0328884Y0199332D01*
X0327493Y0200306D01*
X0327198Y0201978D01*
X0328172Y0203369D01*
X0329844Y0203664D01*
X0331235Y0202690D01*
X0330112Y0201975D01*
X0330230Y0201306D01*
X0329841Y0200750D01*
X0329172Y0200632D01*
X0328616Y0201021D01*
X0328498Y0201690D01*
X0328887Y0202246D01*
X0329556Y0202364D01*
X0330112Y0201975D01*
D22*
G36*
X0197793Y0266033D02*
X0199275Y0268600D01*
X0204057Y0265839D01*
X0202575Y0263272D01*
X0197793Y0266033D01*
G37*
G36*
X0194053Y0259555D02*
X0195535Y0262122D01*
X0200317Y0259361D01*
X0198835Y0256794D01*
X0194053Y0259555D01*
G37*
G36*
X0185188Y0264673D02*
X0186670Y0267240D01*
X0191452Y0264479D01*
X0189970Y0261912D01*
X0185188Y0264673D01*
G37*
G36*
X0187058Y0267912D02*
X0188540Y0270479D01*
X0193322Y0267718D01*
X0191840Y0265151D01*
X0187058Y0267912D01*
G37*
G36*
X0188928Y0271151D02*
X0190410Y0273718D01*
X0195192Y0270957D01*
X0193710Y0268390D01*
X0188928Y0271151D01*
G37*
D23*
X0257299Y0271079D03*
X0259268Y0271079D03*
X0261236Y0271079D03*
X0263205Y0271079D03*
X0265173Y0271079D03*
X0267142Y0271079D03*
X0267142Y0254150D03*
X0265173Y0254150D03*
X0263205Y0254150D03*
X0261236Y0254150D03*
X0259268Y0254150D03*
X0257299Y0254150D03*
D24*
X0253756Y0257693D03*
X0253756Y0259661D03*
X0253756Y0261630D03*
X0253756Y0263598D03*
X0253756Y0265567D03*
X0253756Y0267535D03*
X0270685Y0267535D03*
X0270685Y0265567D03*
X0270685Y0263598D03*
X0270685Y0261630D03*
X0270685Y0259661D03*
X0270685Y0257693D03*
D25*
X0284018Y0264953D03*
X0284018Y0272434D03*
X0269000Y0291112D03*
X0269000Y0298592D03*
X0251978Y0298309D03*
X0251978Y0290829D03*
D26*
X0173626Y0267794D03*
X0173626Y0257164D03*
X0350717Y0257529D03*
X0350717Y0268159D03*
D27*
X0267689Y0351022D03*
X0257059Y0351022D03*
X0257163Y0170571D03*
X0267793Y0170571D03*
D28*
G36*
X0329530Y0298214D02*
X0326181Y0301563D01*
X0332314Y0307696D01*
X0335663Y0304347D01*
X0329530Y0298214D01*
G37*
G36*
X0324241Y0303504D02*
X0320892Y0306853D01*
X0327025Y0312986D01*
X0330374Y0309637D01*
X0324241Y0303504D01*
G37*
G36*
X0317277Y0310257D02*
X0313928Y0313606D01*
X0320061Y0319739D01*
X0323410Y0316390D01*
X0317277Y0310257D01*
G37*
G36*
X0311987Y0315546D02*
X0308638Y0318895D01*
X0314771Y0325028D01*
X0318120Y0321679D01*
X0311987Y0315546D01*
G37*
G36*
X0303039Y0324979D02*
X0299690Y0328328D01*
X0305823Y0334461D01*
X0309172Y0331112D01*
X0303039Y0324979D01*
G37*
G36*
X0297750Y0330269D02*
X0294401Y0333618D01*
X0300534Y0339751D01*
X0303883Y0336402D01*
X0297750Y0330269D01*
G37*
G36*
X0288165Y0338791D02*
X0284816Y0342140D01*
X0290949Y0348273D01*
X0294298Y0344924D01*
X0288165Y0338791D01*
G37*
G36*
X0282876Y0344081D02*
X0279527Y0347430D01*
X0285660Y0353563D01*
X0289009Y0350214D01*
X0282876Y0344081D01*
G37*
D29*
G36*
X0294429Y0345056D02*
X0285792Y0353693D01*
X0293455Y0361356D01*
X0302092Y0352719D01*
X0294429Y0345056D01*
G37*
G36*
X0309303Y0331244D02*
X0300666Y0339881D01*
X0308329Y0347544D01*
X0316966Y0338907D01*
X0309303Y0331244D01*
G37*
G36*
X0323540Y0316522D02*
X0314903Y0325159D01*
X0322566Y0332822D01*
X0331203Y0324185D01*
X0323540Y0316522D01*
G37*
G36*
X0335794Y0304479D02*
X0327157Y0313116D01*
X0334820Y0320779D01*
X0343457Y0312142D01*
X0335794Y0304479D01*
G37*
D30*
X0334661Y0284268D03*
X0310252Y0286236D03*
X0299622Y0298047D03*
X0293420Y0292314D03*
X0288020Y0301314D03*
X0299228Y0320488D03*
X0280724Y0338205D03*
X0271220Y0328014D03*
X0275720Y0323514D03*
X0266157Y0306315D03*
X0248835Y0255921D03*
X0246077Y0249001D03*
X0267620Y0233514D03*
X0284661Y0248047D03*
X0294320Y0247014D03*
X0294320Y0234714D03*
X0288920Y0229314D03*
X0297320Y0223914D03*
X0294320Y0217314D03*
X0292220Y0214014D03*
X0297020Y0213414D03*
X0304820Y0218514D03*
X0304820Y0223914D03*
X0308120Y0226014D03*
X0311720Y0222414D03*
X0309020Y0211914D03*
X0299720Y0199014D03*
X0292220Y0197814D03*
X0285449Y0189386D03*
X0277820Y0184014D03*
X0273920Y0183114D03*
X0270020Y0184014D03*
X0266120Y0184014D03*
X0243020Y0216732D03*
X0238598Y0217732D03*
X0234268Y0214976D03*
X0229543Y0209071D03*
X0224819Y0203559D03*
X0218913Y0197260D03*
X0212614Y0203953D03*
X0233874Y0222457D03*
X0226000Y0229937D03*
X0220094Y0235843D03*
X0212220Y0240173D03*
X0203953Y0238992D03*
X0199228Y0233480D03*
X0185449Y0270094D03*
X0175606Y0278362D03*
X0200409Y0300803D03*
X0210620Y0323514D03*
X0326120Y0210714D03*
X0332720Y0215214D03*
X0355528Y0311039D03*
M02*
