%
M48
M72
T01C0.0150
T02C0.0400
%
T01
X21261Y20395
X21891Y19726
X22482Y20356
X22954Y20907
X23427Y21498
X23860Y21773
X24302Y21673
X23387Y22246
X22600Y22994
X22009Y23584
X21222Y24017
X20395Y23899
X19923Y23348
X18545Y27009
X17561Y27836
X20041Y30080
X21062Y32351
X26616Y30631
X27572Y32351
X27122Y32801
X28072Y33820
X29923Y32049
X28802Y30131
X29342Y29231
X29962Y29805
X31025Y28624
X33466Y28427
X35553Y31104
X29432Y24701
X28466Y24805
X29432Y23471
X28892Y22931
X29732Y22391
X29432Y21731
X29222Y21401
X29702Y21341
X30482Y21851
X30482Y22391
X30812Y22601
X31172Y22241
X30902Y21191
X29972Y19901
X29222Y19781
X28545Y18939
X27782Y18401
X27392Y18311
X27002Y18401
X26612Y18401
X26762Y23351
X24608Y24900
X24883Y25592
X32612Y21071
X33272Y21521
T02
X34084Y21788
X34903Y21215
X34329Y20395
X33756Y19576
X32936Y20150
X33510Y20969
X32659Y18350
X31752Y17927
X30846Y17505
X29940Y17082
X29033Y16659
X28127Y16237
X26738Y16074
X25738Y16074
X16206Y25796
X16206Y26796
X16899Y29704
X17321Y30610
X17744Y31516
X19265Y31134
X18842Y30227
X19339Y33683
X20205Y34183
X21071Y34683
X21937Y35183
X22803Y35683
X23669Y36183
X25724Y36323
X26724Y36323
X36359Y26728
X36359Y25728
M30
