%
M48
M72
T01C0.01500
T02C0.02756
T03C0.03150
T04C0.03543
T05C0.04000
T06C0.05512
T07C0.11024
%
T01
X557000Y125000
X479400Y181800
X480200Y190600
X512200Y189800
X657800Y189800
X365800Y181800
X359400Y190600
T02
X331772Y190039
X331772Y197913
X331772Y205787
X284528Y205787
X284528Y197913
X284528Y190039
X528622Y119173
X528622Y111299
X528622Y103425
X784528Y115236
X792402Y115236
X800276Y115236
X737283Y197913
X737283Y205787
X737283Y213661
T03
X741618Y173638
X714059Y173638
X717362Y145531
X744921Y145531
X475520Y161713
X447961Y161713
X414571Y157846
X387012Y157846
T04
X548043Y201622
X588043Y201622
T05
X621772Y201445
X670354Y209724
X501063Y212165
X501063Y202165
X501063Y192165
X501063Y182165
X418386Y199724
X418386Y209724
T06
X606256Y145417
X629878Y137543
X582634Y137543
X582634Y117858
X606256Y109984
X629878Y117858
T07
X284528Y119173
X611299Y182165
M30
