G75*
%MOIN*%
%OFA0B0*%
%FSLAX25Y25*%
%IPPOS*%
%LPD*%
%AMOC8*
5,1,8,0,0,1.08239X$1,22.5*
%
%ADD10C,0.07400*%
%ADD11C,0.06299*%
%ADD12R,0.07400X0.07400*%
%ADD13R,0.08268X0.08268*%
%ADD14C,0.08268*%
%ADD15R,0.05150X0.05150*%
%ADD16C,0.01000*%
%ADD17C,0.03100*%
D10*
X0501063Y0192165D03*
X0501063Y0202165D03*
X0501063Y0212165D03*
X0548043Y0201622D03*
X0588043Y0201622D03*
X0621772Y0201445D03*
X0670354Y0209724D03*
X0418386Y0209724D03*
X0418386Y0199724D03*
D11*
X0528622Y0103425D03*
X0528622Y0111299D03*
X0528622Y0119173D03*
X0784528Y0115236D03*
X0792402Y0115236D03*
X0800276Y0115236D03*
X0737283Y0197913D03*
X0737283Y0205787D03*
X0737283Y0213661D03*
X0331772Y0205787D03*
X0331772Y0197913D03*
X0331772Y0190039D03*
X0284528Y0190039D03*
X0284528Y0197913D03*
X0284528Y0205787D03*
D12*
X0501063Y0182165D03*
D13*
X0629878Y0117858D03*
D14*
X0582634Y0117858D03*
X0582634Y0137543D03*
X0629878Y0137543D03*
D15*
X0717362Y0145531D03*
X0744921Y0145531D03*
X0741618Y0173638D03*
X0714059Y0173638D03*
X0475520Y0161713D03*
X0447961Y0161713D03*
X0414571Y0157846D03*
X0387012Y0157846D03*
D16*
X0365800Y0181800D02*
X0479400Y0181800D01*
X0480200Y0190600D02*
X0359400Y0190600D01*
X0512200Y0189800D02*
X0657800Y0189800D01*
X0629800Y0137800D02*
X0583400Y0137800D01*
X0582634Y0137543D01*
X0576200Y0125000D02*
X0557000Y0125000D01*
X0576200Y0125000D02*
X0582600Y0118600D01*
X0582634Y0117858D01*
X0583400Y0117800D01*
X0629800Y0117800D01*
X0629878Y0117858D01*
X0629878Y0137543D02*
X0629800Y0137800D01*
D17*
X0557000Y0125000D03*
X0479400Y0181800D03*
X0480200Y0190600D03*
X0512200Y0189800D03*
X0657800Y0189800D03*
X0365800Y0181800D03*
X0359400Y0190600D03*
M02*
